<svg width="42" height="33" viewBox="0 0 42 33" fill="none" xmlns="http://www.w3.org/2000/svg">
<path d="M3 0.5H39C40.4224 0.5 41.5 1.54755 41.5 2.75V30.25C41.5 31.4524 40.4224 32.5 39 32.5H3C1.57758 32.5 0.5 31.4524 0.5 30.25V2.75C0.5 1.54755 1.57758 0.5 3 0.5Z" fill="white" stroke="black"/>
<rect x="6" y="5" width="29" height="23" fill="#A62639"/>
<path d="M33.5714 2.00006H4.42857C3.08742 2.00006 2 3.11648 2 4.49339V29.4267C2 30.8036 3.08742 31.9201 4.42857 31.9201H33.5714C34.9126 31.9201 36 30.8036 36 29.4267V4.49339C36 3.11648 34.9126 2.00006 33.5714 2.00006ZM6.85714 19.4534L11.7143 14.4667L6.85714 9.48006L9.28571 6.98673L16.5714 14.4667L9.28571 21.9467L6.85714 19.4534ZM35 21.9467H16.5714V19.4534L35 19.5V21.9467Z" fill="white"/>
<rect x="17" y="19" width="9" height="19" transform="rotate(-90 17 19)" fill="white"/>
<path d="M23.5586 19L23.1836 18.625L23.9336 17.875H25.8086L26.5586 18.625L26.1836 19H23.5586ZM26.7461 18.4375L25.9961 17.6875V15.8125L26.7461 15.0625L27.1211 15.4375V18.0625L26.7461 18.4375ZM23.9336 15.625L23.3711 15.0625L23.9336 14.5H25.8086L26.3711 15.0625L25.8086 15.625H23.9336ZM22.9961 15.0625L22.6211 14.6875V12.0625L22.9961 11.6875L23.7461 12.4375V14.3125L22.9961 15.0625ZM23.9336 12.25L23.1836 11.5L23.5586 11.125H26.1836L26.5586 11.5L25.8086 12.25H23.9336ZM28.375 18.4375L28 18.0625V15.4375L28.375 15.0625L29.125 15.8125V17.6875L28.375 18.4375ZM28.375 15.0625L28 14.6875V12.0625L28.375 11.6875L29.125 12.4375V14.3125L28.375 15.0625Z" fill="#A62639"/>
<path d="M31.4375 19L31.0625 18.625L31.8125 17.875H33.6875L34.4375 18.625L34.0625 19H31.4375ZM34.625 18.4375L33.875 17.6875V15.8125L34.625 15.0625L35 15.4375V18.0625L34.625 18.4375ZM31.8125 15.625L31.25 15.0625L31.8125 14.5H33.6875L34.25 15.0625L33.6875 15.625H31.8125ZM30.875 15.0625L30.5 14.6875V12.0625L30.875 11.6875L31.625 12.4375V14.3125L30.875 15.0625ZM31.8125 12.25L31.0625 11.5L31.4375 11.125H34.0625L34.4375 11.5L33.6875 12.25H31.8125Z" fill="#A62639"/>
<path d="M18.1856 18.4375L17.8106 18.0625V15.4375L18.1856 15.0625L18.9356 15.8125V17.6875L18.1856 18.4375ZM18.1856 15.0625L17.8106 14.6875V12.0625L18.1856 11.6875L18.9356 12.4375V14.3125L18.1856 15.0625Z" fill="#A62639"/>
<path d="M18.7481 19L18.3731 18.625L19.1231 17.875H20.9981L21.7481 18.625L21.3731 19H18.7481ZM21.9356 18.4375L21.1856 17.6875V15.8125L21.9356 15.0625L22.3106 15.4375V18.0625L21.9356 18.4375ZM19.1231 15.625L18.5606 15.0625L19.1231 14.5H20.9981L21.5606 15.0625L20.9981 15.625H19.1231ZM18.1856 15.0625L17.8106 14.6875V12.0625L18.1856 11.6875L18.9356 12.4375V14.3125L18.1856 15.0625ZM19.1231 12.25L18.3731 11.5L18.7481 11.125H21.3731L21.7481 11.5L20.9981 12.25H19.1231Z" fill="#A62639"/>
<rect x="18" y="11.4142" width="2" height="2" transform="rotate(-45 18 11.4142)" fill="white"/>
<rect x="19" y="12.4142" width="2" height="2" transform="rotate(-45 19 12.4142)" fill="white"/>
<rect x="20" y="11.4142" width="2" height="2" transform="rotate(-45 20 11.4142)" fill="white"/>
</svg>
