<?xml version="1.0" encoding="UTF-8" standalone="no"?>
<svg
   xmlns:dc="http://purl.org/dc/elements/1.1/"
   xmlns:cc="http://creativecommons.org/ns#"
   xmlns:rdf="http://www.w3.org/1999/02/22-rdf-syntax-ns#"
   xmlns:svg="http://www.w3.org/2000/svg"
   xmlns="http://www.w3.org/2000/svg"
   id="svg3725"
   version="1.1"
   viewBox="0 0 64 64"
   height="64"
   width="64">
  <metadata
     id="metadata3731">
    <rdf:RDF>
      <cc:Work
         rdf:about="">
        <dc:format>image/svg+xml</dc:format>
        <dc:type
           rdf:resource="http://purl.org/dc/dcmitype/StillImage" />
        <dc:title></dc:title>
      </cc:Work>
    </rdf:RDF>
  </metadata>
  <defs
     id="defs3729" />
  <path
     style="fill:#297ef1;fill-rule:evenodd;stroke-width:0.16842106"
     id="path3723"
     d="M 47.053514,57.550684 H 16.946486 C 7.6000556,57.550684 0,49.900228 0,40.495767 c 0,-4.48475 1.7156461,-8.721132 4.8332566,-11.92673 2.7309506,-2.805383 6.2685104,-4.551668 10.0954254,-5.005934 0.451956,-3.851609 2.185528,-7.412384 4.975374,-10.159855 3.185467,-3.138681 7.393921,-4.86309 11.85076,-4.86309 4.455559,0 8.665293,1.724409 11.850762,4.861803 2.778321,2.735889 4.506771,6.277361 4.970252,10.108381 C 57.209115,24.288899 64,31.609914 64,40.497054 c 0,9.403174 -7.605177,17.05363 -16.947766,17.05363 z m 0.07169,-3.174654 h 0.129746 c 7.483783,0 13.571491,-6.161915 13.571491,-13.736425 0,-7.573199 -6.087708,-13.735112 -13.571491,-13.735112 h -0.13623 c -0.976992,0 -1.777528,-0.786963 -1.799586,-1.778535 -0.16867,-7.397443 -6.253783,-13.412456 -13.566302,-13.412456 -7.312517,0 -13.400226,6.017637 -13.567599,13.41508 -0.02206,0.973209 -0.796644,1.757548 -1.759364,1.779845 -7.3073275,0.17051 -13.2523153,6.329799 -13.2523153,13.73249 0,7.57451 6.0877095,13.736423 13.5714923,13.736423 h 0.110285 l 0.04282,-0.0026 c 0.03892,0 0.07785,0 0.116772,0.0026 H 47.121315 Z M 40.441745,39.412308 v -0.0026 c 0.291025,0.190326 0.373076,0.583841 0.183333,0.877047 -0.121795,0.185184 -0.323077,0.288064 -0.528207,0.288064 -0.117949,0 -0.238461,-0.03344 -0.343589,-0.10288 -0.283335,-0.185184 -0.516669,-0.396087 -0.711541,-0.617278 -2.124363,1.925135 -4.810266,2.887059 -7.49617,2.887059 -2.679493,0 -5.358986,-0.958067 -7.479503,-2.874198 -0.19359,0.218619 -0.424359,0.424377 -0.700001,0.604417 -0.106411,0.06944 -0.225641,0.10288 -0.34359,0.10288 -0.207693,0 -0.407693,-0.101595 -0.528207,-0.286777 -0.191026,-0.291921 -0.108973,-0.68415 0.183335,-0.877049 1.073078,-0.700868 1.12436,-1.993292 1.12436,-2.044731 0.01154,-0.347219 0.302566,-0.627566 0.644875,-0.617278 0.346154,0.009 0.621795,0.295779 0.615385,0.642997 0,0.0463 -0.01923,0.661001 -0.314104,1.383731 3.817957,3.604643 9.805149,3.5995 13.615414,-0.02186 -0.287181,-0.712441 -0.30513,-1.316859 -0.307693,-1.363154 -0.0064,-0.347219 0.270513,-0.636568 0.619232,-0.642997 0.348719,-0.0052 0.633334,0.270059 0.641027,0.619849 0.0026,0.05658 0.05513,1.343865 1.125644,2.044733 z" />
</svg>
