<?xml version="1.0" encoding="UTF-8"?>
<!DOCTYPE svg PUBLIC "-//W3C//DTD SVG 1.1//EN" "http://www.w3.org/Graphics/SVG/1.1/DTD/svg11.dtd">
<svg xmlns="http://www.w3.org/2000/svg" version="1.1" width="128px" height="128px" style="shape-rendering:geometricPrecision; text-rendering:geometricPrecision; image-rendering:optimizeQuality; fill-rule:evenodd; clip-rule:evenodd" xmlns:xlink="http://www.w3.org/1999/xlink">
<g><path style="opacity:0.936" fill="#66abe2" d="M 55.5,39.5 C 49.2657,38.1927 42.9324,38.1927 36.5,39.5C 39.2877,31.4202 44.9544,26.5868 53.5,25C 73.1261,23.5761 92.7928,23.0761 112.5,23.5C 113.424,27.9413 114.758,32.2746 116.5,36.5C 98.5092,37.333 80.5092,37.833 62.5,38C 60.1341,38.4396 57.8008,38.9396 55.5,39.5 Z"/></g>
<g><path style="opacity:0.985" fill="#5a9edc" d="M 55.5,39.5 C 52.4713,41.372 50.3046,44.0386 49,47.5C 48.5008,52.1548 48.3342,56.8215 48.5,61.5C 43.5,61.5 38.5,61.5 33.5,61.5C 33.3341,56.4889 33.5007,51.4889 34,46.5C 34.3903,43.8958 35.2237,41.5625 36.5,39.5C 42.9324,38.1927 49.2657,38.1927 55.5,39.5 Z"/></g>
<g><path style="opacity:0.979" fill="#5498d9" d="M 24.5,61.5 C 19.8333,61.5 15.1667,61.5 10.5,61.5C 9.77052,56.8696 9.43718,52.2029 9.5,47.5C 14.5,47.5 19.5,47.5 24.5,47.5C 24.5,52.1667 24.5,56.8333 24.5,61.5 Z"/></g>
<g><path style="opacity:0.984" fill="#5498d8" d="M 93.5,61.5 C 88.5,61.5 83.5,61.5 78.5,61.5C 78.3893,60.8826 78.056,60.3826 77.5,60C 72.1667,59.6667 66.8333,59.3333 61.5,59C 58.9232,55.738 58.9232,52.4046 61.5,49C 67.2541,47.9036 73.0875,47.4036 79,47.5C 84.2159,47.5238 89.3825,47.8571 94.5,48.5C 95.5529,49.4383 96.2196,50.605 96.5,52C 95.3928,55.1538 94.3928,58.3205 93.5,61.5 Z"/></g>
<g><path style="opacity:1" fill="#387fc9" d="M 10.5,61.5 C 15.1667,61.5 19.8333,61.5 24.5,61.5C 26.9885,78.4927 36.6552,88.9927 53.5,93C 63.8333,95 74.1667,95 84.5,93C 93.1748,89.4134 102.175,88.5801 111.5,90.5C 105.339,99.7577 96.6727,105.258 85.5,107C 71.3449,109.413 57.3449,108.746 43.5,105C 22.697,97.8784 11.697,83.3784 10.5,61.5 Z"/></g>
<g><path style="opacity:1" fill="#387fc9" d="M 33.5,61.5 C 38.5,61.5 43.5,61.5 48.5,61.5C 49.9832,65.1468 52.6499,67.6468 56.5,69C 62.5729,71.4315 68.7396,71.9315 75,70.5C 75.9003,67.2823 77.067,64.2823 78.5,61.5C 83.5,61.5 88.5,61.5 93.5,61.5C 91.3721,68.5504 89.0387,75.5504 86.5,82.5C 71.6734,87.4023 57.3401,86.2357 43.5,79C 37.9587,74.4161 34.6253,68.5827 33.5,61.5 Z"/></g>
</svg>
