<?xml version="1.0" encoding="UTF-8" standalone="no"?>
<!-- Created with Inkscape (http://www.inkscape.org/) -->

<svg
   xmlns:osb="http://www.openswatchbook.org/uri/2009/osb"
   xmlns:dc="http://purl.org/dc/elements/1.1/"
   xmlns:cc="http://creativecommons.org/ns#"
   xmlns:rdf="http://www.w3.org/1999/02/22-rdf-syntax-ns#"
   xmlns:svg="http://www.w3.org/2000/svg"
   xmlns="http://www.w3.org/2000/svg"
   xmlns:xlink="http://www.w3.org/1999/xlink"
   xmlns:sodipodi="http://sodipodi.sourceforge.net/DTD/sodipodi-0.dtd"
   xmlns:inkscape="http://www.inkscape.org/namespaces/inkscape"
   width="73.970093mm"
   height="73.970093mm"
   viewBox="0 0 73.970093 73.970093"
   version="1.1"
   id="svg8"
   inkscape:version="0.92.1 r"
   sodipodi:docname="movie-monad-icon-1.svg"
   inkscape:export-filename="/home/lettier/tmp/movie-monad-icon-1.png"
   inkscape:export-xdpi="32.964676"
   inkscape:export-ydpi="32.964676">
  <defs
     id="defs2">
    <linearGradient
       inkscape:collect="always"
       id="linearGradient5445">
      <stop
         style="stop-color:#57ace3;stop-opacity:1;"
         offset="0"
         id="stop5441" />
      <stop
         style="stop-color:#57ace3;stop-opacity:0;"
         offset="1"
         id="stop5443" />
    </linearGradient>
    <inkscape:path-effect
       tgtlength_rdm="1;499169899"
       tgtlength="10"
       tgtscale="5"
       tgt_places_rdmness="1;2147483646"
       nbtangents="3"
       tremble_frequency="0.01"
       tremble_size="3;2147483646"
       parallel_offset="1;618914966"
       ends_tolerance="1;1"
       strokeoverlap_rdm="1;1527224402"
       strokeoverlap="1"
       strokelength_rdm="1;693460889"
       strokelength="100"
       nbiter_approxstrokes="1"
       is_visible="true"
       id="path-effect5439"
       effect="sketch" />
    <inkscape:path-effect
       effect="bend_path"
       id="path-effect10605"
       is_visible="true"
       bendpath="m 424.1184,110.88365 c 102.124,-4.64842 205.00309,-10.80704 299.39935,0"
       prop_scale="1"
       scale_y_rel="false"
       vertical="false"
       bendpath-nodetypes="cc" />
    <inkscape:path-effect
       effect="bounding_box"
       id="path-effect10603"
       is_visible="true"
       linkedpath=""
       visualbounds="false" />
    <inkscape:path-effect
       effect="fill_between_many"
       id="path-effect10601"
       is_visible="true"
       linkedpaths="" />
    <inkscape:path-effect
       effect="rough_hatches"
       id="path-effect10599"
       is_visible="true"
       direction="573.81807,105.88365 , 74.849838,0"
       dist_rdm="75;1"
       growth="0"
       do_bend="true"
       bender="573.81807,110.88365 , 5,0"
       bottom_edge_variation="13.03522;1"
       top_edge_variation="13.03522;1"
       bottom_tgt_variation="0;1"
       top_tgt_variation="0;1"
       scale_bf="1"
       scale_bb="1"
       scale_tf="1"
       scale_tb="1"
       top_smth_variation="0;1"
       bottom_smth_variation="0;1"
       fat_output="true"
       stroke_width_top="1"
       stroke_width_bottom="1"
       front_thickness="1"
       back_thickness="0.25" />
    <inkscape:path-effect
       effect="powerstroke"
       id="path-effect10597"
       is_visible="true"
       offset_points="0.2,1.5 | 1.5,1.5 | 2.8,1.5"
       sort_points="true"
       interpolator_type="CubicBezierFit"
       interpolator_beta="0.81"
       start_linecap_type="peak"
       linejoin_type="extrp_arc"
       miter_limit="4"
       end_linecap_type="butt" />
    <inkscape:path-effect
       effect="roughen"
       id="path-effect10595"
       is_visible="true"
       method="segments"
       max_segment_size="10"
       segments="2"
       displace_x="10;1"
       displace_y="10;1"
       global_randomize="1;1"
       handles="along"
       shift_nodes="true"
       fixed_displacement="false"
       spray_tool_friendly="false" />
    <inkscape:path-effect
       effect="simplify"
       id="path-effect10593"
       is_visible="true"
       steps="0"
       threshold="0.002"
       smooth_angles="0"
       helper_size="5"
       simplify_individual_paths="false"
       simplify_just_coalesce="false" />
    <marker
       inkscape:stockid="Arrow1Mend"
       orient="auto"
       refY="0"
       refX="0"
       id="Arrow1Mend"
       style="overflow:visible"
       inkscape:isstock="true">
      <path
         id="path10335"
         d="M 0,0 5,-5 -12.5,0 5,5 Z"
         style="fill:#57ace3;fill-opacity:1;fill-rule:evenodd;stroke:#57ace3;stroke-width:1.00000003pt;stroke-opacity:1"
         transform="matrix(-0.4,0,0,-0.4,-4,0)"
         inkscape:connector-curvature="0" />
    </marker>
    <marker
       inkscape:stockid="Arrow1Lstart"
       orient="auto"
       refY="0"
       refX="0"
       id="marker10589"
       style="overflow:visible"
       inkscape:isstock="true">
      <path
         id="path10326"
         d="M 0,0 5,-5 -12.5,0 5,5 Z"
         style="fill:#57ace3;fill-opacity:1;fill-rule:evenodd;stroke:#57ace3;stroke-width:1.00000003pt;stroke-opacity:1"
         transform="matrix(0.8,0,0,0.8,10,0)"
         inkscape:connector-curvature="0" />
    </marker>
    <inkscape:path-effect
       tgtlength_rdm="1;499169899"
       tgtlength="60"
       tgtscale="5"
       tgt_places_rdmness="1;2147483646"
       nbtangents="3"
       tremble_frequency="0.01"
       tremble_size="1;2147483646"
       parallel_offset="0;618914966"
       ends_tolerance="1;1"
       strokeoverlap_rdm="1;1527224402"
       strokeoverlap="1"
       strokelength_rdm="1;693460889"
       strokelength="100"
       nbiter_approxstrokes="2"
       is_visible="true"
       id="path-effect10204"
       effect="sketch" />
    <linearGradient
       id="linearGradient10200"
       inkscape:collect="always">
      <stop
         id="stop10196"
         offset="0"
         style="stop-color:#57ace3;stop-opacity:1" />
      <stop
         id="stop10198"
         offset="1"
         style="stop-color:#e0437f;stop-opacity:0.89019608" />
    </linearGradient>
    <inkscape:path-effect
       effect="taper_stroke"
       id="path-effect10194"
       is_visible="true"
       stroke_width="5"
       attach_start="0.99999"
       end_offset="0.99999"
       smoothing="0.1"
       jointype="bevel"
       miter_limit="100" />
    <inkscape:path-effect
       effect="taper_stroke"
       id="path-effect10171"
       is_visible="true"
       stroke_width="1"
       attach_start="0.2"
       end_offset="0.2"
       smoothing="0.5"
       jointype="extrapolated"
       miter_limit="100" />
    <inkscape:path-effect
       effect="simplify"
       id="path-effect10169"
       is_visible="true"
       steps="19"
       threshold="0.002"
       smooth_angles="0"
       helper_size="5"
       simplify_individual_paths="false"
       simplify_just_coalesce="false" />
    <inkscape:path-effect
       effect="roughen"
       id="path-effect10167"
       is_visible="true"
       method="segments"
       max_segment_size="9"
       segments="2"
       displace_x="1;1"
       displace_y="1;1"
       global_randomize="1;1"
       handles="along"
       shift_nodes="true"
       fixed_displacement="false"
       spray_tool_friendly="false" />
    <inkscape:path-effect
       effect="powerstroke"
       id="path-effect10165"
       is_visible="true"
       offset_points="7.5,0.13229166"
       sort_points="true"
       interpolator_type="CubicBezierFit"
       interpolator_beta="0.24"
       start_linecap_type="butt"
       linejoin_type="extrp_arc"
       miter_limit="4"
       end_linecap_type="butt" />
    <inkscape:path-effect
       effect="bend_path"
       id="path-effect10163"
       is_visible="true"
       bendpath="M 6.8171912,228.1058 H 126.12427"
       prop_scale="1"
       scale_y_rel="false"
       vertical="false" />
    <inkscape:path-effect
       effect="construct_grid"
       id="path-effect10161"
       is_visible="true"
       nr_x="5"
       nr_y="5" />
    <inkscape:path-effect
       effect="rough_hatches"
       id="path-effect10159"
       is_visible="true"
       direction="66.722547,223.63972 , 30.669258,0"
       dist_rdm="75;1"
       growth="0"
       do_bend="true"
       bender="66.722547,228.63972 , 5,0"
       bottom_edge_variation="4.25;1"
       top_edge_variation="4.0490918;1"
       bottom_tgt_variation="0;1"
       top_tgt_variation="0;1"
       scale_bf="1"
       scale_bb="1"
       scale_tf="1"
       scale_tb="1"
       top_smth_variation="0;1"
       bottom_smth_variation="0;1"
       fat_output="true"
       stroke_width_top="1"
       stroke_width_bottom="1"
       front_thickness="1"
       back_thickness="0.25" />
    <inkscape:path-effect
       effect="sketch"
       id="path-effect10157"
       is_visible="true"
       nbiter_approxstrokes="5"
       strokelength="10"
       strokelength_rdm="0.3;1264792834"
       strokeoverlap="0.3"
       strokeoverlap_rdm="0.3;1"
       ends_tolerance="0.1;1"
       parallel_offset="1;1"
       tremble_size="1;1"
       tremble_frequency="0.01"
       nbtangents="5"
       tgt_places_rdmness="1;1"
       tgtscale="10"
       tgtlength="5"
       tgtlength_rdm="0.3;1" />
    <inkscape:path-effect
       effect="sketch"
       id="path-effect10155"
       is_visible="true"
       nbiter_approxstrokes="9"
       strokelength="20"
       strokelength_rdm="0.3;1580765317"
       strokeoverlap="0"
       strokeoverlap_rdm="0;797676426"
       ends_tolerance="0;84877062"
       parallel_offset="0.1;2147483646"
       tremble_size="2;1740572465"
       tremble_frequency="1"
       nbtangents="4"
       tgt_places_rdmness="1;1"
       tgtscale="10"
       tgtlength="10"
       tgtlength_rdm="0.3;1" />
    <inkscape:path-effect
       effect="sketch"
       id="path-effect10153"
       is_visible="true"
       nbiter_approxstrokes="1"
       strokelength="100"
       strokelength_rdm="1;693460889"
       strokeoverlap="1"
       strokeoverlap_rdm="1;1527224402"
       ends_tolerance="1;1"
       parallel_offset="1;618914966"
       tremble_size="3;2147483646"
       tremble_frequency="0.01"
       nbtangents="3"
       tgt_places_rdmness="1;2147483646"
       tgtscale="5"
       tgtlength="10"
       tgtlength_rdm="1;499169899" />
    <inkscape:path-effect
       effect="taper_stroke"
       id="path-effect9006"
       is_visible="true"
       stroke_width="20"
       attach_start="0.99999"
       end_offset="3.99999"
       smoothing="0.5"
       jointype="extrapolated"
       miter_limit="200" />
    <inkscape:path-effect
       effect="roughen"
       id="path-effect9004"
       is_visible="true"
       method="segments"
       max_segment_size="10"
       segments="2"
       displace_x="10;1"
       displace_y="10;1"
       global_randomize="1;1"
       handles="along"
       shift_nodes="true"
       fixed_displacement="false"
       spray_tool_friendly="false" />
    <inkscape:path-effect
       effect="spiro"
       id="path-effect9002"
       is_visible="true" />
    <inkscape:path-effect
       effect="sketch"
       id="path-effect9000"
       is_visible="true"
       nbiter_approxstrokes="3"
       strokelength="500"
       strokelength_rdm="0.3;2147483646"
       strokeoverlap="0.3"
       strokeoverlap_rdm="0.3;2083033150"
       ends_tolerance="0.1;1404504716"
       parallel_offset="5;2147483646"
       tremble_size="5;1181147172"
       tremble_frequency="1"
       nbtangents="20"
       tgt_places_rdmness="1;296553611"
       tgtscale="5"
       tgtlength="100"
       tgtlength_rdm="0.3;1794606228" />
    <inkscape:path-effect
       effect="ruler"
       id="path-effect8998"
       is_visible="true"
       unit="px"
       mark_distance="20"
       mark_length="14"
       minor_mark_length="7"
       major_mark_steps="5"
       shift="0"
       offset="0"
       mark_dir="left"
       border_marks="both" />
    <inkscape:path-effect
       effect="simplify"
       id="path-effect8996"
       is_visible="true"
       steps="29"
       threshold="0.002"
       smooth_angles="0"
       helper_size="5"
       simplify_individual_paths="false"
       simplify_just_coalesce="false" />
    <inkscape:path-effect
       effect="show_handles"
       id="path-effect8994"
       is_visible="true"
       nodes="true"
       handles="true"
       original_path="true"
       scale_nodes_and_handles="10" />
    <inkscape:path-effect
       effect="sketch"
       id="path-effect8992"
       is_visible="true"
       nbiter_approxstrokes="1"
       strokelength="20"
       strokelength_rdm="1;1"
       strokeoverlap="1"
       strokeoverlap_rdm="1;1"
       ends_tolerance="0.1;1"
       parallel_offset="0;1"
       tremble_size="5;1"
       tremble_frequency="1"
       nbtangents="20"
       tgt_places_rdmness="1;1"
       tgtscale="10"
       tgtlength="50"
       tgtlength_rdm="0.3;1" />
    <inkscape:path-effect
       effect="powerstroke"
       id="path-effect8990"
       is_visible="true"
       offset_points="3,0.25"
       sort_points="true"
       interpolator_type="Linear"
       interpolator_beta="0.2"
       start_linecap_type="butt"
       linejoin_type="extrp_arc"
       miter_limit="4"
       end_linecap_type="butt" />
    <inkscape:path-effect
       effect="fill_between_strokes"
       id="path-effect8988"
       is_visible="true"
       linkedpath=""
       secondpath=""
       reversesecond="false" />
    <inkscape:path-effect
       effect="fill_between_many"
       id="path-effect8986"
       is_visible="true"
       linkedpaths="" />
    <inkscape:path-effect
       effect="gears"
       id="path-effect8984"
       is_visible="true"
       teeth="10"
       phi="5"
       min_radius="5" />
    <inkscape:path-effect
       effect="rough_hatches"
       id="path-effect8982"
       is_visible="true"
       direction="317.46248,263.61816 , 144.59689,0"
       dist_rdm="75;1924315346"
       growth="0"
       do_bend="true"
       bender="317.46248,268.61816 , 5,0"
       bottom_edge_variation="13.811914;896150574"
       top_edge_variation="13.811914;2070401107"
       bottom_tgt_variation="0;815658193"
       top_tgt_variation="0;1753223962"
       scale_bf="1"
       scale_bb="1"
       scale_tf="1"
       scale_tb="1"
       top_smth_variation="0;1"
       bottom_smth_variation="0;1"
       fat_output="true"
       stroke_width_top="1"
       stroke_width_bottom="1"
       front_thickness="1"
       back_thickness="0.25" />
    <inkscape:path-effect
       effect="construct_grid"
       id="path-effect8980"
       is_visible="true"
       nr_x="5"
       nr_y="5" />
    <linearGradient
       id="linearGradient8935"
       osb:paint="solid">
      <stop
         style="stop-color:#373737;stop-opacity:1;"
         offset="0"
         id="stop8933" />
    </linearGradient>
    <linearGradient
       inkscape:collect="always"
       id="linearGradient5282">
      <stop
         style="stop-color:#814dd2;stop-opacity:1;"
         offset="0"
         id="stop5278" />
      <stop
         style="stop-color:#b46bd3;stop-opacity:0.89019608"
         offset="1"
         id="stop5280" />
    </linearGradient>
    <marker
       inkscape:stockid="Arrow1Lend"
       orient="auto"
       refY="0"
       refX="0"
       id="Arrow1Lend"
       style="overflow:visible"
       inkscape:isstock="true">
      <path
         id="path4997"
         d="M 0,0 5,-5 -12.5,0 5,5 Z"
         style="fill-rule:evenodd;stroke:#000000;stroke-width:1.00000003pt"
         transform="matrix(-0.8,0,0,-0.8,-10,0)"
         inkscape:connector-curvature="0" />
    </marker>
    <marker
       inkscape:stockid="Arrow1Lstart"
       orient="auto"
       refY="0"
       refX="0"
       id="Arrow1Lstart"
       style="overflow:visible"
       inkscape:isstock="true">
      <path
         id="path4994"
         d="M 0,0 5,-5 -12.5,0 5,5 Z"
         style="fill-rule:evenodd;stroke:#000000;stroke-width:1.00000003pt"
         transform="matrix(0.8,0,0,0.8,10,0)"
         inkscape:connector-curvature="0" />
    </marker>
    <linearGradient
       inkscape:collect="always"
       xlink:href="#linearGradient5282"
       id="linearGradient5284"
       x1="-119.13808"
       y1="53.642838"
       x2="-64.290207"
       y2="53.285694"
       gradientUnits="userSpaceOnUse" />
    <linearGradient
       inkscape:collect="always"
       xlink:href="#linearGradient5282"
       id="linearGradient5300"
       gradientUnits="userSpaceOnUse"
       x1="-119.13808"
       y1="53.642838"
       x2="-58.218777"
       y2="55.071407" />
    <linearGradient
       inkscape:collect="always"
       xlink:href="#linearGradient5282"
       id="linearGradient5352"
       gradientUnits="userSpaceOnUse"
       x1="-119.13808"
       y1="53.642838"
       x2="-58.218777"
       y2="55.071407" />
    <linearGradient
       inkscape:collect="always"
       xlink:href="#linearGradient5282"
       id="linearGradient5354"
       gradientUnits="userSpaceOnUse"
       x1="-119.13808"
       y1="53.642838"
       x2="-64.290207"
       y2="53.285694" />
    <linearGradient
       inkscape:collect="always"
       xlink:href="#linearGradient5282"
       id="linearGradient4670"
       gradientUnits="userSpaceOnUse"
       x1="-119.13808"
       y1="53.642838"
       x2="-64.290207"
       y2="53.285694" />
    <linearGradient
       inkscape:collect="always"
       xlink:href="#linearGradient5282"
       id="linearGradient4678"
       gradientUnits="userSpaceOnUse"
       x1="-119.13808"
       y1="53.642838"
       x2="-64.290207"
       y2="53.285694" />
    <linearGradient
       inkscape:collect="always"
       xlink:href="#linearGradient10200"
       id="linearGradient5260"
       x1="61.251041"
       y1="250.69791"
       x2="128.98438"
       y2="250.69791"
       gradientUnits="userSpaceOnUse"
       gradientTransform="matrix(1.1521699,0,0,1.1943224,-10.9053,-54.269335)" />
    <clipPath
       clipPathUnits="userSpaceOnUse"
       id="clipPath5388">
      <g
         id="g5394">
        <path
           style="font-style:normal;font-variant:normal;font-weight:800;font-stretch:normal;font-size:57.54236603px;line-height:125%;font-family:'Fira Sans';-inkscape-font-specification:'Fira Sans Ultra-Bold';text-align:start;letter-spacing:-1.70070565px;word-spacing:0px;writing-mode:lr-tb;text-anchor:start;fill:none;fill-opacity:1;fill-rule:evenodd;stroke:#ffffff;stroke-width:0.23003563;stroke-linecap:butt;stroke-linejoin:miter;stroke-miterlimit:4;stroke-dasharray:none;stroke-dashoffset:0;stroke-opacity:1"
           d="m 125.5315,249.78764 c -3.34965,-1.30393 -6.69931,-2.60787 -10.04896,-3.9118 5.21848,-2.15262 10.43696,-4.30525 15.65545,-6.45787 -0.92835,-2.01253 -1.85669,-4.02505 -2.78504,-6.03758 -6.83922,2.90641 -13.67843,5.81282 -20.51763,8.71921 0.0104,2.54721 0.0208,5.09442 0.0312,7.64163 6.86079,2.8724 13.7216,5.74479 20.58242,8.61717 0.90892,-2.11466 1.81783,-4.22931 2.72675,-6.34397 -1.76975,-0.68894 -3.53951,-1.37789 -5.30926,-2.06683 m -2.62477,-4.90221 c 3.04901,-1.25752 6.09801,-2.51505 9.14702,-3.77257 -0.92751,-2.01274 -1.85501,-4.02549 -2.78252,-6.03823 -2.59416,1.10259 -5.18831,2.20519 -7.78247,3.30778 m 5.56493,-1.53082 c -5.40972,2.29966 -10.81943,4.59932 -16.22916,6.89899 0.0117,2.54697 0.0234,5.09394 0.0352,7.64091 6.86463,2.8717 13.72924,5.74341 20.59384,8.61511 0.91009,-2.11486 1.82018,-4.22973 2.73027,-6.3446 -5.23684,-2.04024 -10.47368,-4.08049 -15.71053,-6.12073 0.75831,-0.31271 1.51662,-0.62542 2.27492,-0.93812 m -14.17992,-7.36348 c -0.76309,-1.65493 -1.52619,-3.30987 -2.28928,-4.9648 -6.839321,2.90343 -13.678636,5.80688 -20.517944,8.71032 0.01054,2.5462 0.02107,5.0924 0.03161,7.6386 6.860547,2.86946 13.721102,5.73892 20.581665,8.60838 0.90903,-2.11556 1.81807,-4.23112 2.72711,-6.34668 -5.23993,-2.04195 -10.479854,-4.08389 -15.719772,-6.12583 3.538493,-1.46115 7.076989,-2.9223 10.615482,-4.38345 m -9.578035,6.75815 c -0.379995,-0.14802 -0.759989,-0.29603 -1.139983,-0.44404 5.220982,-2.15291 10.441958,-4.30583 15.662928,-6.45875 -0.54602,-1.18498 -1.09203,-2.36995 -1.63805,-3.55493 m -30.759591,4.52156 c 2.327107,-4.2e-4 4.654213,-8.4e-4 6.981318,-0.001 4.72e-4,-2.42569 9.42e-4,-4.85139 0.0014,-7.27708 -5.608879,-0.001 -11.217765,-0.002 -16.826659,-0.003 4.62e-4,2.42483 9.24e-4,4.84967 0.0014,7.2745 5.611028,-9.8e-4 11.22205,-0.002 16.833063,-0.003 4.54e-4,-2.42568 9.07e-4,-4.85135 0.0014,-7.27703 -1.723988,-3e-4 -3.447976,-5.9e-4 -5.171966,-8.9e-4 m -2.024007,22.444 c 2.816132,-1e-5 5.632262,-2e-5 8.448391,-3e-5 4.56e-4,-2.64572 9.1e-4,-5.29144 0.0014,-7.93716 -5.637754,-2e-5 -11.275514,-5e-5 -16.913281,-7e-5 4.48e-4,2.6457 8.94e-4,5.29139 0.0013,7.93709 5.639668,-2e-5 11.279329,-5e-5 16.918984,-7e-5 4.39e-4,-2.64571 8.77e-4,-5.29143 0.0013,-7.93714 -0.03972,0 -0.07944,0 -0.119166,0 m 27.325498,-18.3087 -17.328914,7.36254 m 21.261664,1.45287 -0.93476,0.39715 m 0.9253,12.30443 14.19828,5.93971"
           id="path5390"
           inkscape:original-d="m 128.7605,234.92828 -20.5118,8.71485 0.0332,7.64014 20.58818,8.61286 2.72852,-6.3453 -15.71475,-6.12245 15.65994,-6.46122 z m -24.75443,0.0311 -20.511815,8.71485 0.0337,7.64014 20.587745,8.61287 2.72898,-6.3453 -15.715213,-6.12246 15.659933,-6.46121 z m -40.143469,2.37674 v 7.27578 h 16.829893 v -7.27578 z m -0.08627,12.16313 v 7.93712 h 16.91616 v -7.93712 z"
           inkscape:path-effect="#path-effect10153"
           inkscape:connector-curvature="0" />
        <path
           inkscape:original-d="m 708.97266,63.355469 -89.16797,37.884761 0.14453,33.21289 89.5,37.44141 11.86133,-27.58398 -68.31446,-26.61524 68.07618,-28.087888 z m -107.61133,0.134765 -89.16797,37.884766 0.14648,33.21289 89.49805,37.44141 11.86328,-27.58399 -68.3164,-26.61523 68.07617,-28.087892 z M 426.85156,73.822266 v 31.628904 h 73.16211 V 73.822266 Z m -0.375,52.875004 v 34.5039 h 73.53711 v -34.5039 z"
           id="path5392"
           d="m 650.24158,82.877982 c -10.149,3.781746 -20.1801,7.698359 -30.11816,11.721213 3e-5,-0.006 -0.20722,33.232025 -0.20718,33.226045 10.46503,4.53182 20.80539,9.18012 30.97848,13.96782 M 633.98845,89.915578 c -4.37615,1.710896 -8.7325,3.44455 -13.07111,5.19858 1e-5,-4.22e-4 -0.0739,11.184852 -0.0739,11.184432 m 0.37278,-3.80672 c 1e-5,-0.002 -0.17855,25.85224 -0.17854,25.85018 14.60623,6.34072 28.96616,12.91035 42.96367,19.77137 m -31.31836,-14.0728 c 25.19686,11.26895 49.54864,23.28313 72.44078,36.37319 1.425,-2.72943 2.86187,-5.45508 4.31094,-8.17685 m -6.97533,6.68321 c 0.92922,0.52549 1.85609,1.05271 2.78058,1.58169 4.58684,-8.77946 9.29667,-17.51974 14.14,-26.21726 -6.95272,-3.77255 -14.01859,-7.44365 -21.18283,-11.02194 m 1.28755,-0.18554 c -14.8103,-7.42641 -30.04349,-14.4533 -45.56854,-21.15719 12.62298,-4.62803 25.39915,-9.03748 38.37817,-13.169505 m -18.7384,22.832935 c -6.26317,-2.87365 -12.58539,-5.68727 -18.95756,-8.44619 23.14078,-8.47619 46.79403,-16.213872 71.26656,-22.849679 -0.22872,-0.662637 -0.45816,-1.32517 -0.68831,-1.987601 m -71.06157,24.84294 c -2.7e-4,-1.2e-4 -0.71567,-0.30912 -0.71594,-0.30924 23.13582,-8.50099 46.78195,-16.269483 71.24507,-22.942194 -2.81444,-8.108272 -5.73549,-16.201083 -8.75553,-24.2782 m -26.09484,33.263656 c 11.29107,-3.630566 22.7343,-7.053436 34.3625,-10.229723 -0.45247,-1.298072 -0.90767,-2.595747 -1.36557,-3.893024 m -0.61775,6.067313 c 0.81699,-0.225925 1.63488,-0.450636 2.45368,-0.674118 -3.17802,-9.163387 -6.49223,-18.307041 -9.93162,-27.430627 -0.62069,0.179564 -1.24081,0.359777 -1.86037,0.540633 M 724.0723,88.77051 c -3e-5,7e-6 0.2599,-0.07099 0.25987,-0.07098 -3.19166,-9.161723 -6.51908,-18.303673 -9.97123,-27.425513 -10.91455,3.157907 -21.65447,6.515727 -32.24586,10.043417 m 11.85695,-2.48494 c -23.89196,7.592096 -46.99908,16.087727 -69.6127,25.151573 m -0.43513,1.234862 c -0.86165,0.346041 -1.7226,0.692905 -2.58285,1.040573 0,-6.33e-4 -0.0825,11.715567 -0.0825,11.714937 m -1.14486,-4.62264 c 2e-5,-0.003 -0.15936,25.9702 -0.15934,25.96762 19.67736,8.52605 38.90805,17.46409 57.40797,26.96703 m -5.17959,-4.09691 c 11.17635,5.63101 22.10189,11.45969 32.71559,17.51889 1.06572,-2.04091 2.13807,-4.0797 3.21719,-6.11634 m -16.16717,-0.69843 c 4.49732,2.4364 8.94519,4.91012 13.33928,7.42352 4.5879,-8.78027 9.29885,-17.52135 14.14335,-26.21966 -13.9167,-7.55194 -28.28634,-14.69746 -42.99029,-21.50586 m 3.21061,0.9872 c -8.79427,-4.11274 -17.71151,-8.10234 -26.72613,-11.98375 9.58254,-3.52225 19.25313,-6.91934 29.03349,-10.16553 m -6.29154,3.40821 c 16.00756,-5.449894 32.29758,-10.506011 48.96708,-15.053449 -2.73184,-7.869814 -5.56409,-15.725064 -8.48978,-23.565537 m 9.71116,23.601543 c -10e-6,10e-7 0.0757,-0.02052 0.0757,-0.02052 -3.1675,-9.168181 -6.47185,-18.316577 -9.90208,-27.444853 -14.82033,4.260532 -29.31841,8.892287 -43.55961,13.820057 m 47.96444,-1.481223 c -1.46923,-4.051074 -2.96412,-8.098229 -4.4837,-12.141437 -10.36636,2.98215 -20.57513,6.14594 -30.64872,9.46561 m 34.56626,1.430692 c -1.47476,-4.050136 -2.97506,-8.096352 -4.49994,-12.138618 -19.92545,5.740294 -39.26773,12.148987 -58.18539,19.043646 m 27.30172,-7.79642 c -7.20395,2.383141 -14.33903,4.845786 -21.41343,7.378487 m 13.91967,-6.239516 c -18.5565,6.309449 -36.66702,13.130413 -54.47416,20.298837 m -99.88694,-2.65901 c -3.7155,1.714952 -7.42448,3.435794 -11.12812,5.161624 -5e-5,-0.0011 0.51174,11.701562 0.51169,11.700442 m -1.16626,-9.974288 c -2e-5,7e-6 -0.10031,0.04677 -0.10032,0.04677 -4.9e-4,-0.01105 1.45405,33.189175 1.45357,33.178125 14.55592,5.39361 29.0225,10.86451 43.33592,16.46681 m -44.30591,-34.9574 c -1.2e-4,-0.003 0.76588,17.43323 0.76576,17.43045 2.49468,0.92414 4.98679,1.85054 7.47599,2.77947 m -7.79893,-15.73125 c -7e-5,-0.001 0.55089,12.57745 0.55083,12.57602 16.53412,6.12709 32.95515,12.35391 49.1696,18.75966 m -49.998,-25.64703 c -2e-5,-4.2e-4 0.29586,6.72017 0.29584,6.71975 21.69241,8.03149 43.19188,16.23317 64.28749,24.78382 m -55.73364,-22.29341 c 16.28094,6.07855 32.438,12.26676 48.38137,18.64074 M 538.6902,140.8996 c 13.05629,4.98649 26.008,10.06328 38.80781,15.27048 4.95988,2.02065 9.89517,4.0586 14.80138,6.11628 m -42.55708,-18.2693 c 9.31176,3.60951 18.56357,7.2712 27.73805,10.99979 8.32758,3.38914 16.58663,6.82714 24.75588,10.32545 2.01093,-4.82094 4.03838,-9.63839 6.08388,-14.45184 m -27.09202,6.54812 c 6.76764,2.77547 13.48728,5.58447 20.1474,8.43321 3.83317,-9.20422 7.72597,-18.39597 11.68893,-27.57166 -2.66267,-1.06719 -5.33325,-2.12724 -8.0111,-3.18056 m -17.67453,24.80734 c -4e-4,-1.6e-4 0.71086,0.29527 0.71045,0.2951 m 0.14227,0.48986 c 4.4971,1.87026 8.97094,3.75642 13.41807,5.66035 m -10.077,-3.99188 c 3.30432,1.38397 6.59552,2.77682 9.87223,4.17929 3.83114,-9.20405 7.72187,-18.39563 11.68269,-27.57116 -4.68134,-1.87728 -9.38733,-3.73251 -14.11434,-5.56781 m -3.47274,28.46872 c 2.50316,1.05575 4.99856,2.11681 7.4856,3.18351 3.84303,-9.20071 7.74681,-18.38849 11.72182,-27.55979 -12.43487,-4.99967 -25.04372,-9.84155 -37.75845,-14.5654 -3.78675,-1.40608 -7.58297,-2.80119 -11.38756,-4.18633 m 48.53565,21.61219 c -1.7e-4,4e-4 0.39568,-0.91478 0.39551,-0.91439 -12.35213,-4.96947 -24.87863,-9.78356 -37.51252,-14.48141 0,0 0,0 0,0 -0.002,-5.9e-4 -1.49386,-0.55438 -1.49544,-0.55497 m 14.92803,5.28113 c -4.46369,-1.70194 -8.94392,-3.38741 -13.43767,-5.05816 -10.77759,-4.00456 -21.6331,-7.92011 -32.54145,-11.76948 3.60412,-1.59924 7.21392,-3.19123 10.83049,-4.77515 m 3.29049,8.8856 c -4.50077,-1.62071 -9.01238,-3.22836 -13.53303,-4.82458 10.46006,-4.6382 20.96883,-9.21505 31.55249,-13.710221 6.70151,-2.847434 13.43404,-5.663734 20.20532,-8.439763 m -42.45719,26.470664 c -2.78088,-0.99541 -5.56571,-1.98604 -8.35408,-2.97227 3.53015,-1.56453 7.06581,-3.12201 10.60798,-4.67164 m -6.28221,1.12087 c 8.71898,-3.84186 17.47467,-7.63886 26.28214,-11.379291 6.23906,-2.650669 12.50495,-5.274355 18.80392,-7.863686 m -30.08413,13.695717 c 1.69004,-0.7302 3.38175,-1.45849 5.07524,-2.18477 m -3.70952,0.27076 c 3.29638,-1.42091 6.59931,-2.83445 9.90956,-4.240003 12.08898,-5.135115 24.2791,-10.168894 36.61561,-15.047723 -3.81907,-8.196246 -7.69879,-16.377835 -11.63022,-24.544496 m 7.66355,15.993468 c -2.66832,-5.660129 -5.36415,-11.313206 -8.08454,-16.959141 -6.13435,2.520141 -12.22725,5.075193 -18.28428,7.658738 m 21.8501,0.239974 c -1.19988,-2.513918 -2.40488,-5.026433 -3.61474,-7.537535 -5.45054,2.240469 -10.86844,4.508482 -16.25759,6.799535 m 12.33589,-6.475006 c -6.71417,2.780884 -13.37956,5.60218 -20.00355,8.455418 m 5.22362,-1.424866 c -2.09601,0.894819 -4.18772,1.793033 -6.27538,2.694375 -21.33032,9.189731 -42.27864,18.699376 -63.05589,28.36997 m 73.14903,-32.387689 c -3.37392,1.430271 -6.73645,2.869706 -10.08856,4.317204 -14.05547,6.056609 -27.94537,12.252172 -41.73006,18.541186 m 34.13573,-15.100677 c -13.55115,5.910939 -26.95746,11.944435 -40.27371,18.059191 M 567.455,71.414256 c -10.01024,4.371971 -19.94169,8.810224 -29.81644,13.298103 m 19.59924,-7.3737 c -15.52737,6.889358 -30.88337,13.926195 -46.1519,21.047284 -10e-5,-0.0022 0.70264,16.025187 0.70254,16.022947 m 0.87651,-18.197631 c -1.9e-4,8.6e-5 -0.35812,0.16672 -0.3583,0.166806 m 1.08448,0.822714 c -0.004,0.0019 -1.69243,0.788488 -1.69657,0.790417 -1.3e-4,-0.0029 0.84103,19.229244 0.8409,19.226364 m 0.27212,-20.309867 c -7.4e-4,3.43e-4 -0.71392,0.332461 -0.71466,0.332804 -4e-4,-0.0093 1.44469,33.189763 1.44429,33.180483 11.28017,4.18412 22.50656,8.41567 33.64949,12.71984 m -35.32215,-28.47471 c -1.1e-4,-0.002 0.69794,15.953 0.69784,15.95059 17.67814,6.55284 35.2254,13.22036 52.52747,20.09941 m -13.02727,-5.4797 c 6.64819,2.58659 13.26492,5.20045 19.84385,7.84699 m -14.54026,-5.47963 c 3.37527,1.32489 6.74192,2.65722 10.09913,3.9977 m -5.39559,-1.55982 c 5.16536,2.04368 10.30944,4.10566 15.42921,6.18851 8.03258,3.27252 16.00065,6.59042 23.88508,9.96399 3.57375,-8.58209 7.19933,-17.15333 10.88525,-25.71084 m -48.34658,8.62447 c 4.53399,1.79806 9.0515,3.61046 13.55048,5.43895 8.57906,3.49155 17.0857,7.03497 25.49668,10.6428 1.91851,-4.59483 3.85215,-9.18644 5.80223,-13.77439 m -41.52536,0.52971 c 3.42676,1.36777 6.84367,2.74402 10.24984,4.1295 8.35495,3.40329 16.64023,6.85569 24.83429,10.36877 3.83709,-9.20147 7.73433,-18.39024 11.70222,-27.56272 -5.91943,-2.37828 -11.87854,-4.72102 -17.86996,-7.03252 m 13.95351,4.36339 c -0.002,-8.8e-4 -1.79934,-0.7141 -1.80156,-0.71498 m 0.25261,1.27066 c -10.41553,-4.13 -20.94603,-8.15491 -31.55191,-12.09788 -10.5318,-3.91299 -21.13804,-7.741 -31.79532,-11.50531 -0.0133,0.006 3.63504,-1.60824 3.62177,-1.60235 m 48.0644,20.84878 c -4.71741,-1.82326 -9.45512,-3.62703 -14.20953,-5.41341 m 2.40101,-0.2426 c -2.69367,-1.01619 -5.39282,-2.02666 -8.09682,-3.03181 -10.38933,-3.85968 -20.85046,-7.63674 -31.36094,-11.3516 -0.0155,0.007 3.94411,-1.74382 3.92864,-1.73696 m 20.404,11.06404 c -7.93015,-2.91003 -15.89918,-5.77486 -23.89719,-8.60348 5.07413,-2.2482 10.15969,-4.48179 15.25969,-6.69847 m -13.61649,6.6743 c -0.009,-0.003 -3.05451,-1.07992 -3.06321,-1.08301 10.59224,-4.6966 21.23429,-9.33057 31.95333,-13.88081 7.21165,-3.062608 14.45934,-6.08915 21.75269,-9.068245 m -8.83881,3.866756 c 7.8818,-3.27547 15.81275,-6.500433 23.80517,-9.66031 -0.90933,-1.951335 -1.82211,-3.901839 -2.73821,-5.851509 m 2.26326,3.123733 c -3.697,-7.91409 -7.45009,-15.814457 -11.25119,-23.700854 -8.5632,3.512555 -17.0451,7.093405 -25.46084,10.725134 -4.85982,2.092681 -9.69974,4.201958 -14.52227,6.325955 M 445.3614,104.95449 c 9.76321,-0.4568 1.68049,-0.0787 11.4437,-0.53547 m -10.32307,0.17019 c 17.33768,-0.81149 34.68495,-1.62843 52.0441,-2.35925 0,2e-5 -0.46244,-11.003335 -0.46244,-11.003316 m -45.86213,13.509466 c 10.91926,-0.51038 21.84211,-1.01894 32.76916,-1.5028 m -10.72125,-0.82512 c 8.068,-0.3673 16.13869,-0.72521 24.21227,-1.06452 0.002,0.0444 -1.33216,-31.644111 -1.33029,-31.599679 -6.59025,0.277249 -13.17067,0.566548 -19.74138,0.862977 m 2.25651,0.535676 c -7.30576,0.326528 -36.16329,1.682218 -43.46906,2.008746 m 35.77617,-0.870836 c -10.80151,0.493925 -31.83544,1.492911 -42.63695,1.986836 m 3.35975,-1.504342 c 0.39499,-0.01836 -9.27129,0.428216 -8.87629,0.409857 -0.001,-0.02207 1.44614,31.619645 1.44513,31.597575 0.10366,-0.005 5.20914,-0.23889 5.31279,-0.24362 m -0.2042,-30.76454 c 0.20369,-0.0094 -6.92249,0.318369 -6.71879,0.308951 -9.8e-4,-0.02146 1.44069,31.616219 1.43972,31.594769 0.1859,-0.008 6.89529,-0.31723 7.08119,-0.32573 m -6.69291,-6.800598 c 0,-4e-6 0.3181,6.962618 0.3181,6.962618 0.24448,-0.0112 7.70616,-0.35518 7.95064,-0.36637 m -8.35402,-1.37166 c 0,0 0.0827,1.80758 0.0827,1.80758 3.0696,-0.14043 22.32683,-1.04088 25.39644,-1.18132 m 20.54416,-1.203 c 8.98418,-0.41193 17.97134,-0.81355 26.9618,-1.19215 0.002,0.0378 -1.33217,-31.639357 -1.33058,-31.601546 -10.17056,0.427545 -20.31809,0.883734 -30.44304,1.350483 m 30.68664,-0.72718 c -20.40193,0.858688 -40.71263,1.833171 -60.93582,2.777436 m 28.41997,-1.684025 c -4.1856,0.193669 -19.90118,0.931629 -24.08678,1.125298 m 22.17602,-1.068122 c -22.28414,1.034703 -17.10212,0.801742 -39.38626,1.836445 -1.4e-4,-0.0031 0.53538,11.761564 0.53524,11.758433 m 32.28599,-14.126315 c -95.89965,4.469127 62.94442,-2.937182 -32.95522,1.531945 -1e-4,-0.0021 0.45257,9.905323 0.45248,9.903238 M 448.9164,72.551881 c 11.72288,-0.549159 -36.94844,1.722573 -25.22557,1.173414 -0.001,-0.0234 1.44333,31.619995 1.44226,31.596595 6.6714,-0.30451 28.44286,-1.3283 35.11426,-1.63281 m -34.01902,1.55845 c 13.52181,-0.61825 30.67232,-1.43431 44.19413,-2.05256 m -9.57078,1.2155 c 12.84618,-0.5986 25.69748,-1.18633 38.55486,-1.72596 0.003,0.069 -1.20208,-28.704378 -1.19919,-28.635343 m -20.193,84.780593 c -0.21015,0.01 8.44865,-0.38035 8.2385,-0.37079 m -8.41912,0.49633 c 7.79028,-0.35489 15.56278,-0.70005 23.3177,-1.02705 0.007,0.17784 -1.4534,-34.65264 -1.44594,-34.47479 -7.23278,0.30417 -14.47002,0.62366 -21.7119,0.95178 m 9.43891,34.49345 c 4.35631,-0.19375 8.70702,-0.38336 13.05218,-0.56734 0.003,0.066 -1.45708,-34.542 -1.4543,-34.47599 -0.0565,0.002 -5.57864,0.23801 -5.63515,0.24039 m 7.67428,28.58029 c 0,0 -0.40982,-9.7569 -0.40982,-9.7569 m 0.84061,6.75643 c 0.001,0.0346 -1.11214,-26.54197 -1.1107,-26.50738 -17.97917,0.75429 -35.98538,1.60458 -54.02121,2.44789 m 55.01929,23.80495 c 0.007,0.15617 -0.85568,-20.45303 -0.84915,-20.29687 m 0.21924,1.51522 c 3.1e-4,0.008 -0.35042,-8.37985 -0.3501,-8.37232 -10.5658,0.44215 -21.14036,0.91746 -31.72418,1.40505 m 9.07703,1.51937 c -16.95737,0.77063 -35.92067,1.68342 -52.87805,2.45405 -0.001,-0.0286 1.56923,34.49986 1.56793,34.4713 0.058,-0.003 4.17146,-0.18972 4.22949,-0.19234 m -4.98992,-19.88834 c -3.8e-4,-0.008 0.87723,19.28496 0.87684,19.27656 18.6697,-0.84824 35.2157,-1.64809 53.8854,-2.49633 m 11.79856,0.1906 c -0.15774,0.007 8.99135,-0.38633 8.83362,-0.37944 -10e-6,-8e-5 -1.43579,-34.1165 -1.43579,-34.11659 m -1.69603,33.35019 c -0.0262,0.001 3.81643,-0.16203 3.79027,-0.16091 0.0157,0.37447 -1.4585,-34.85081 -1.44283,-34.47634 -0.0214,8.9e-4 -3.5105,0.14826 -3.53186,0.14915 m 4.61922,19.10912 c 0.004,0.0858 -0.78458,-18.76752 -0.78099,-18.68177 -24.53892,1.02893 -49.13037,2.23745 -73.78111,3.36364 m 73.39687,-3.66582 c 0,0 -0.0473,-1.127 -0.0473,-1.127 -8.93557,0.37427 -17.87744,0.77214 -26.82593,1.18099 m 15.15007,0.12688 c -0.22906,0.0101 -9.6177,0.43036 -9.84676,0.44045 m 1.52061,0.34501 c -16.24181,0.73155 -38.96197,1.82062 -55.20378,2.55217 -0.001,-0.0237 1.47431,32.45127 1.47323,32.42759 m 40.34148,-35.16514 c -25.12414,1.16377 -16.34142,0.76449 -41.46556,1.92826 -7.8e-4,-0.017 1.2093,26.53281 1.20852,26.51577 m 24.69571,-28.18027 c 9.53772,-0.44541 -35.81094,1.66128 -26.27322,1.21588 -0.001,-0.0299 1.57115,34.49543 1.56979,34.46556 0.0762,-0.003 4.73457,-0.2163 4.81073,-0.21977 m -2.79221,-33.16409 c 0.0241,-0.001 -2.59964,0.11865 -2.57549,0.11755 -4e-4,-0.009 0.8109,17.75591 0.8105,17.74721 m -1.05404,-3.95994 c -4.1e-4,-0.009 0.89319,19.58425 0.89278,19.57525 0.1,-0.005 5.38575,-0.24536 5.48572,-0.24989 m -0.33745,0.29462 c 18.27801,-0.83737 27.86561,-1.30104 46.14361,-2.13842 m -30.04463,0.96977 c 1.40741,-0.0658 6.09013,-0.28494 7.49755,-0.35072 m -6.93473,1.30994 c 17.84317,-0.83318 35.5931,-1.67079 53.25223,-2.41325 0.001,0.0251 -0.89222,-21.27408 -0.89117,-21.24899 M 645.91022,40.260018 C 621.98143,48.971525 598.82716,58.393162 576.151,68.183886 563.38251,73.685152 550.75083,79.301063 538.21074,84.99752 m 110.06472,-0.559322 c -1.94975,0.731393 -3.89521,1.467714 -5.83656,2.208758 m -8.17032,48.075284 c 27.78415,12.47907 54.52224,25.87525 79.38684,40.63376"
           style="font-style:normal;font-variant:normal;font-weight:800;font-stretch:normal;font-size:57.54236603px;line-height:125%;font-family:'Fira Sans';-inkscape-font-specification:'Fira Sans Ultra-Bold';text-align:start;letter-spacing:-1.70070565px;word-spacing:0px;writing-mode:lr-tb;text-anchor:start;fill:none;fill-opacity:1;fill-rule:evenodd;stroke:#ffffff;stroke-width:2;stroke-linecap:butt;stroke-linejoin:bevel;stroke-miterlimit:4;stroke-dasharray:none;stroke-dashoffset:0;stroke-opacity:1;paint-order:markers fill stroke"
           transform="matrix(0.23003563,0,0,0.23003563,-34.32847,220.35427)"
           inkscape:connector-curvature="0"
           inkscape:path-effect="#path-effect10204;#path-effect10605" />
      </g>
    </clipPath>
    <linearGradient
       inkscape:collect="always"
       xlink:href="#linearGradient5445"
       id="linearGradient5447"
       x1="194.11444"
       y1="171.69249"
       x2="208.0477"
       y2="171.69249"
       gradientUnits="userSpaceOnUse" />
  </defs>
  <sodipodi:namedview
     id="base"
     pagecolor="#ffffff"
     bordercolor="#666666"
     borderopacity="1.0"
     inkscape:pageopacity="0"
     inkscape:pageshadow="2"
     inkscape:zoom="1.4142136"
     inkscape:cx="-95.060424"
     inkscape:cy="195.27244"
     inkscape:document-units="mm"
     inkscape:current-layer="layer1"
     showgrid="false"
     showguides="false"
     inkscape:guide-bbox="true"
     inkscape:window-width="1920"
     inkscape:window-height="1156"
     inkscape:window-x="0"
     inkscape:window-y="344"
     inkscape:window-maximized="1"
     inkscape:snap-global="false"
     fit-margin-top="1"
     fit-margin-left="1"
     fit-margin-bottom="1"
     fit-margin-right="1">
    <sodipodi:guide
       position="-18.283337,-6.8574839"
       orientation="1,0"
       id="guide5364"
       inkscape:locked="false" />
    <sodipodi:guide
       position="-54.301302,-23.845229"
       orientation="1,0"
       id="guide4628"
       inkscape:locked="false" />
    <sodipodi:guide
       position="14.79005,13.869135"
       orientation="1,0"
       id="guide4630"
       inkscape:locked="false" />
    <sodipodi:guide
       position="25.073828,12.648867"
       orientation="1,0"
       id="guide4645"
       inkscape:locked="false" />
    <sodipodi:guide
       position="34.171138,10.582856"
       orientation="1,0"
       id="guide4647"
       inkscape:locked="false" />
    <sodipodi:guide
       position="57.606798,51.200452"
       orientation="0,1"
       id="guide4649"
       inkscape:locked="false" />
    <sodipodi:guide
       position="25.305172,14.188496"
       orientation="0,1"
       id="guide4669"
       inkscape:locked="false" />
    <sodipodi:guide
       position="43.057057,16.275635"
       orientation="1,0"
       id="guide4671"
       inkscape:locked="false" />
    <sodipodi:guide
       position="-20.347857,-23.596279"
       orientation="0,1"
       id="guide4673"
       inkscape:locked="false" />
    <sodipodi:guide
       position="25.034657,11.235584"
       orientation="0,1"
       id="guide4675"
       inkscape:locked="false" />
    <sodipodi:guide
       position="-22.807425,49.027496"
       orientation="0,1"
       id="guide4677"
       inkscape:locked="false" />
    <sodipodi:guide
       position="40.983087,16.110933"
       orientation="1,0"
       id="guide4693"
       inkscape:locked="false" />
    <inkscape:grid
       type="xygrid"
       id="grid4698"
       originx="-61.701408"
       originy="-35.109788" />
    <sodipodi:guide
       position="98.173079,-7.7584859"
       orientation="1,0"
       id="guide4710"
       inkscape:locked="false" />
    <sodipodi:guide
       position="50.922778,38.663913"
       orientation="0,1"
       id="guide8975"
       inkscape:locked="false" />
    <sodipodi:guide
       position="60.542648,31.20595"
       orientation="0,1"
       id="guide9906"
       inkscape:locked="false" />
    <sodipodi:guide
       position="58.460138,22.31158"
       orientation="0,1"
       id="guide9908"
       inkscape:locked="false" />
    <sodipodi:guide
       position="51.300488,24.750125"
       orientation="1,0"
       id="guide9910"
       inkscape:locked="false" />
    <sodipodi:guide
       position="65.846298,33.738844"
       orientation="0,1"
       id="guide9916"
       inkscape:locked="false" />
  </sodipodi:namedview>
  <metadata
     id="metadata5">
    <rdf:RDF>
      <cc:Work
         rdf:about="">
        <dc:format>image/svg+xml</dc:format>
        <dc:type
           rdf:resource="http://purl.org/dc/dcmitype/StillImage" />
        <dc:title></dc:title>
      </cc:Work>
    </rdf:RDF>
  </metadata>
  <g
     inkscape:label="Layer 1"
     inkscape:groupmode="layer"
     id="layer1"
     transform="translate(-61.701405,-187.92013)">
    <g
       id="flowRoot4616"
       style="font-style:normal;font-variant:normal;font-weight:bold;font-stretch:normal;font-size:40px;font-family:'Fira Sans';-inkscape-font-specification:'Fira Sans Bold';text-align:start;letter-spacing:0.38999996px;word-spacing:0px;writing-mode:lr-tb;text-anchor:start;fill:none;fill-opacity:1;fill-rule:evenodd;stroke:url(#linearGradient4670);stroke-width:1.13385832;stroke-linecap:round;stroke-linejoin:miter;stroke-miterlimit:4;stroke-dasharray:none;stroke-dashoffset:0;stroke-opacity:1;paint-order:stroke fill markers"
       transform="matrix(1.1781329,0,0,1.1781329,271.19496,167.28142)"
       aria-label=" &gt; " />
    <g
       id="flowRoot4650"
       style="font-style:normal;font-variant:normal;font-weight:bold;font-stretch:normal;font-size:40px;font-family:'Fira Sans';-inkscape-font-specification:'Fira Sans Bold';text-align:start;letter-spacing:0.38999996px;word-spacing:0px;writing-mode:lr-tb;text-anchor:start;fill:none;fill-opacity:1;fill-rule:evenodd;stroke:url(#linearGradient4678);stroke-width:1.13385832;stroke-linecap:round;stroke-linejoin:miter;stroke-miterlimit:4;stroke-dasharray:none;stroke-dashoffset:0;stroke-opacity:1;paint-order:stroke fill markers"
       transform="matrix(1.1781329,0,0,1.1781329,268.90451,167.19108)"
       aria-label="   &gt; " />
    <g
       id="flowRoot4642"
       style="font-style:normal;font-variant:normal;font-weight:bold;font-stretch:normal;font-size:42.66666794px;font-family:'Fira Sans';-inkscape-font-specification:'Fira Sans Bold';text-align:start;letter-spacing:-2.850003px;word-spacing:0px;writing-mode:lr-tb;text-anchor:start;fill:#373737;fill-opacity:1;stroke:none;stroke-width:1px;stroke-linecap:butt;stroke-linejoin:miter;stroke-opacity:1"
       transform="matrix(1.1781329,0,0,1.1781329,258.78415,166.40418)"
       aria-label="E" />
    <rect
       style="opacity:1;fill:url(#linearGradient5260);fill-opacity:1;fill-rule:nonzero;stroke:none;stroke-width:0.31037128;stroke-linecap:butt;stroke-linejoin:bevel;stroke-miterlimit:4;stroke-dasharray:none;stroke-dashoffset:0;stroke-opacity:1;paint-order:markers fill stroke"
       id="rect5250"
       width="77.735458"
       height="77.735466"
       x="59.818722"
       y="206.27705"
       ry="2.3587098"
       clip-path="url(#clipPath5388)"
       transform="translate(-4.2652026e-7,-20.239616)" />
    <path
       style="font-style:normal;font-variant:normal;font-weight:800;font-stretch:normal;font-size:57.54236603px;line-height:125%;font-family:'Fira Sans';-inkscape-font-specification:'Fira Sans Ultra-Bold';text-align:start;letter-spacing:-1.70070565px;word-spacing:0px;writing-mode:lr-tb;text-anchor:start;fill:none;fill-opacity:1;fill-rule:evenodd;stroke:#2a144d;stroke-width:0.23003563;stroke-linecap:butt;stroke-linejoin:miter;stroke-miterlimit:4;stroke-dasharray:none;stroke-dashoffset:0;stroke-opacity:1"
       d="m 125.5315,229.54802 c -3.34965,-1.30393 -6.69931,-2.60787 -10.04896,-3.9118 5.21848,-2.15262 10.43696,-4.30525 15.65545,-6.45787 -0.92835,-2.01253 -1.85669,-4.02505 -2.78504,-6.03758 -6.83922,2.90641 -13.67843,5.81282 -20.51763,8.71921 0.0104,2.54721 0.0208,5.09442 0.0312,7.64163 6.86079,2.8724 13.7216,5.74479 20.58242,8.61717 0.90892,-2.11466 1.81783,-4.22931 2.72675,-6.34397 -1.76975,-0.68894 -3.53951,-1.37789 -5.30926,-2.06683 m -2.62477,-4.90221 c 3.04901,-1.25752 6.09801,-2.51505 9.14702,-3.77257 -0.92751,-2.01274 -1.85501,-4.02549 -2.78252,-6.03823 -2.59416,1.10259 -5.18831,2.20519 -7.78247,3.30778 m 5.56493,-1.53082 c -5.40972,2.29966 -10.81943,4.59932 -16.22916,6.89899 0.0117,2.54697 0.0234,5.09394 0.0352,7.64091 6.86463,2.8717 13.72924,5.74341 20.59384,8.61511 0.91009,-2.11486 1.82018,-4.22973 2.73027,-6.3446 -5.23684,-2.04024 -10.47368,-4.08049 -15.71053,-6.12073 0.75831,-0.31271 1.51662,-0.62542 2.27492,-0.93812 m -14.17992,-7.36348 c -0.76309,-1.65493 -1.52619,-3.30987 -2.28928,-4.9648 -6.839321,2.90343 -13.678636,5.80688 -20.517944,8.71032 0.01054,2.5462 0.02107,5.0924 0.03161,7.6386 6.860547,2.86946 13.721102,5.73892 20.581665,8.60838 0.90903,-2.11556 1.81807,-4.23112 2.72711,-6.34668 -5.23993,-2.04195 -10.479854,-4.08389 -15.719772,-6.12583 3.538493,-1.46115 7.076989,-2.9223 10.615482,-4.38345 m -9.578035,6.75815 c -0.379995,-0.14802 -0.759989,-0.29603 -1.139983,-0.44404 5.220982,-2.15291 10.441958,-4.30583 15.662928,-6.45875 -0.54602,-1.18498 -1.09203,-2.36995 -1.63805,-3.55493 m -30.759591,4.52156 c 2.327107,-4.2e-4 4.654213,-8.4e-4 6.981318,-0.001 4.72e-4,-2.42569 9.42e-4,-4.85139 0.0014,-7.27708 -5.608879,-0.001 -11.217765,-0.002 -16.826659,-0.003 4.62e-4,2.42483 9.24e-4,4.84967 0.0014,7.2745 5.611028,-9.8e-4 11.22205,-0.002 16.833063,-0.003 4.54e-4,-2.42568 9.07e-4,-4.85135 0.0014,-7.27703 -1.723988,-3e-4 -3.447976,-5.9e-4 -5.171966,-8.9e-4 m -2.024007,22.444 c 2.816132,-1e-5 5.632262,-2e-5 8.448391,-3e-5 4.56e-4,-2.64572 9.1e-4,-5.29144 0.0014,-7.93716 -5.637754,-2e-5 -11.275514,-5e-5 -16.913281,-7e-5 4.48e-4,2.6457 8.94e-4,5.29139 0.0013,7.93709 5.639668,-2e-5 11.279329,-5e-5 16.918984,-7e-5 4.39e-4,-2.64571 8.77e-4,-5.29143 0.0013,-7.93714 -0.03972,0 -0.07944,0 -0.119166,0 m 27.325498,-18.3087 -17.328914,7.36254 m 21.261664,1.45287 -0.93476,0.39715 m 0.9253,12.30443 14.19828,5.93971"
       id="text10004"
       inkscape:original-d="m 128.7605,214.68866 -20.5118,8.71485 0.0332,7.64014 20.58818,8.61286 2.72852,-6.3453 -15.71475,-6.12245 15.65994,-6.46122 z m -24.75443,0.0311 -20.511815,8.71485 0.0337,7.64014 20.587745,8.61287 2.72898,-6.3453 -15.715213,-6.12246 15.659933,-6.46121 z m -40.143469,2.37674 v 7.27578 h 16.829893 v -7.27578 z m -0.08627,12.16313 v 7.93712 h 16.91616 v -7.93712 z"
       inkscape:path-effect="#path-effect5439"
       inkscape:connector-curvature="0" />
    <path
       inkscape:original-d="m 708.97266,63.355469 -89.16797,37.884761 0.14453,33.21289 89.5,37.44141 11.86133,-27.58398 -68.31446,-26.61524 68.07618,-28.087888 z m -107.61133,0.134765 -89.16797,37.884766 0.14648,33.21289 89.49805,37.44141 11.86328,-27.58399 -68.3164,-26.61523 68.07617,-28.087892 z M 426.85156,73.822266 v 31.628904 h 73.16211 V 73.822266 Z m -0.375,52.875004 v 34.5039 h 73.53711 v -34.5039 z"
       id="path10202"
       d="m 650.24158,82.877982 c -10.149,3.781746 -20.1801,7.698359 -30.11816,11.721213 3e-5,-0.006 -0.20722,33.232025 -0.20718,33.226045 10.46503,4.53182 20.80539,9.18012 30.97848,13.96782 M 633.98845,89.915578 c -4.37615,1.710896 -8.7325,3.44455 -13.07111,5.19858 1e-5,-4.22e-4 -0.0739,11.184852 -0.0739,11.184432 m 0.37278,-3.80672 c 1e-5,-0.002 -0.17855,25.85224 -0.17854,25.85018 14.60623,6.34072 28.96616,12.91035 42.96367,19.77137 m -31.31836,-14.0728 c 25.19686,11.26895 49.54864,23.28313 72.44078,36.37319 1.425,-2.72943 2.86187,-5.45508 4.31094,-8.17685 m -6.97533,6.68321 c 0.92922,0.52549 1.85609,1.05271 2.78058,1.58169 4.58684,-8.77946 9.29667,-17.51974 14.14,-26.21726 -6.95272,-3.77255 -14.01859,-7.44365 -21.18283,-11.02194 m 1.28755,-0.18554 c -14.8103,-7.42641 -30.04349,-14.4533 -45.56854,-21.15719 12.62298,-4.62803 25.39915,-9.03748 38.37817,-13.169505 m -18.7384,22.832935 c -6.26317,-2.87365 -12.58539,-5.68727 -18.95756,-8.44619 23.14078,-8.47619 46.79403,-16.213872 71.26656,-22.849679 -0.22872,-0.662637 -0.45816,-1.32517 -0.68831,-1.987601 m -71.06157,24.84294 c -2.7e-4,-1.2e-4 -0.71567,-0.30912 -0.71594,-0.30924 23.13582,-8.50099 46.78195,-16.269483 71.24507,-22.942194 -2.81444,-8.108272 -5.73549,-16.201083 -8.75553,-24.2782 m -26.09484,33.263656 c 11.29107,-3.630566 22.7343,-7.053436 34.3625,-10.229723 -0.45247,-1.298072 -0.90767,-2.595747 -1.36557,-3.893024 m -0.61775,6.067313 c 0.81699,-0.225925 1.63488,-0.450636 2.45368,-0.674118 -3.17802,-9.163387 -6.49223,-18.307041 -9.93162,-27.430627 -0.62069,0.179564 -1.24081,0.359777 -1.86037,0.540633 M 724.0723,88.77051 c -3e-5,7e-6 0.2599,-0.07099 0.25987,-0.07098 -3.19166,-9.161723 -6.51908,-18.303673 -9.97123,-27.425513 -10.91455,3.157907 -21.65447,6.515727 -32.24586,10.043417 m 11.85695,-2.48494 c -23.89196,7.592096 -46.99908,16.087727 -69.6127,25.151573 m -0.43513,1.234862 c -0.86165,0.346041 -1.7226,0.692905 -2.58285,1.040573 0,-6.33e-4 -0.0825,11.715567 -0.0825,11.714937 m -1.14486,-4.62264 c 2e-5,-0.003 -0.15936,25.9702 -0.15934,25.96762 19.67736,8.52605 38.90805,17.46409 57.40797,26.96703 m -5.17959,-4.09691 c 11.17635,5.63101 22.10189,11.45969 32.71559,17.51889 1.06572,-2.04091 2.13807,-4.0797 3.21719,-6.11634 m -16.16717,-0.69843 c 4.49732,2.4364 8.94519,4.91012 13.33928,7.42352 4.5879,-8.78027 9.29885,-17.52135 14.14335,-26.21966 -13.9167,-7.55194 -28.28634,-14.69746 -42.99029,-21.50586 m 3.21061,0.9872 c -8.79427,-4.11274 -17.71151,-8.10234 -26.72613,-11.98375 9.58254,-3.52225 19.25313,-6.91934 29.03349,-10.16553 m -6.29154,3.40821 c 16.00756,-5.449894 32.29758,-10.506011 48.96708,-15.053449 -2.73184,-7.869814 -5.56409,-15.725064 -8.48978,-23.565537 m 9.71116,23.601543 c -10e-6,10e-7 0.0757,-0.02052 0.0757,-0.02052 -3.1675,-9.168181 -6.47185,-18.316577 -9.90208,-27.444853 -14.82033,4.260532 -29.31841,8.892287 -43.55961,13.820057 m 47.96444,-1.481223 c -1.46923,-4.051074 -2.96412,-8.098229 -4.4837,-12.141437 -10.36636,2.98215 -20.57513,6.14594 -30.64872,9.46561 m 34.56626,1.430692 c -1.47476,-4.050136 -2.97506,-8.096352 -4.49994,-12.138618 -19.92545,5.740294 -39.26773,12.148987 -58.18539,19.043646 m 27.30172,-7.79642 c -7.20395,2.383141 -14.33903,4.845786 -21.41343,7.378487 m 13.91967,-6.239516 c -18.5565,6.309449 -36.66702,13.130413 -54.47416,20.298837 m -99.88694,-2.65901 c -3.7155,1.714952 -7.42448,3.435794 -11.12812,5.161624 -5e-5,-0.0011 0.51174,11.701562 0.51169,11.700442 m -1.16626,-9.974288 c -2e-5,7e-6 -0.10031,0.04677 -0.10032,0.04677 -4.9e-4,-0.01105 1.45405,33.189175 1.45357,33.178125 14.55592,5.39361 29.0225,10.86451 43.33592,16.46681 m -44.30591,-34.9574 c -1.2e-4,-0.003 0.76588,17.43323 0.76576,17.43045 2.49468,0.92414 4.98679,1.85054 7.47599,2.77947 m -7.79893,-15.73125 c -7e-5,-0.001 0.55089,12.57745 0.55083,12.57602 16.53412,6.12709 32.95515,12.35391 49.1696,18.75966 m -49.998,-25.64703 c -2e-5,-4.2e-4 0.29586,6.72017 0.29584,6.71975 21.69241,8.03149 43.19188,16.23317 64.28749,24.78382 m -55.73364,-22.29341 c 16.28094,6.07855 32.438,12.26676 48.38137,18.64074 M 538.6902,140.8996 c 13.05629,4.98649 26.008,10.06328 38.80781,15.27048 4.95988,2.02065 9.89517,4.0586 14.80138,6.11628 m -42.55708,-18.2693 c 9.31176,3.60951 18.56357,7.2712 27.73805,10.99979 8.32758,3.38914 16.58663,6.82714 24.75588,10.32545 2.01093,-4.82094 4.03838,-9.63839 6.08388,-14.45184 m -27.09202,6.54812 c 6.76764,2.77547 13.48728,5.58447 20.1474,8.43321 3.83317,-9.20422 7.72597,-18.39597 11.68893,-27.57166 -2.66267,-1.06719 -5.33325,-2.12724 -8.0111,-3.18056 m -17.67453,24.80734 c -4e-4,-1.6e-4 0.71086,0.29527 0.71045,0.2951 m 0.14227,0.48986 c 4.4971,1.87026 8.97094,3.75642 13.41807,5.66035 m -10.077,-3.99188 c 3.30432,1.38397 6.59552,2.77682 9.87223,4.17929 3.83114,-9.20405 7.72187,-18.39563 11.68269,-27.57116 -4.68134,-1.87728 -9.38733,-3.73251 -14.11434,-5.56781 m -3.47274,28.46872 c 2.50316,1.05575 4.99856,2.11681 7.4856,3.18351 3.84303,-9.20071 7.74681,-18.38849 11.72182,-27.55979 -12.43487,-4.99967 -25.04372,-9.84155 -37.75845,-14.5654 -3.78675,-1.40608 -7.58297,-2.80119 -11.38756,-4.18633 m 48.53565,21.61219 c -1.7e-4,4e-4 0.39568,-0.91478 0.39551,-0.91439 -12.35213,-4.96947 -24.87863,-9.78356 -37.51252,-14.48141 0,0 0,0 0,0 -0.002,-5.9e-4 -1.49386,-0.55438 -1.49544,-0.55497 m 14.92803,5.28113 c -4.46369,-1.70194 -8.94392,-3.38741 -13.43767,-5.05816 -10.77759,-4.00456 -21.6331,-7.92011 -32.54145,-11.76948 3.60412,-1.59924 7.21392,-3.19123 10.83049,-4.77515 m 3.29049,8.8856 c -4.50077,-1.62071 -9.01238,-3.22836 -13.53303,-4.82458 10.46006,-4.6382 20.96883,-9.21505 31.55249,-13.710221 6.70151,-2.847434 13.43404,-5.663734 20.20532,-8.439763 m -42.45719,26.470664 c -2.78088,-0.99541 -5.56571,-1.98604 -8.35408,-2.97227 3.53015,-1.56453 7.06581,-3.12201 10.60798,-4.67164 m -6.28221,1.12087 c 8.71898,-3.84186 17.47467,-7.63886 26.28214,-11.379291 6.23906,-2.650669 12.50495,-5.274355 18.80392,-7.863686 m -30.08413,13.695717 c 1.69004,-0.7302 3.38175,-1.45849 5.07524,-2.18477 m -3.70952,0.27076 c 3.29638,-1.42091 6.59931,-2.83445 9.90956,-4.240003 12.08898,-5.135115 24.2791,-10.168894 36.61561,-15.047723 -3.81907,-8.196246 -7.69879,-16.377835 -11.63022,-24.544496 m 7.66355,15.993468 c -2.66832,-5.660129 -5.36415,-11.313206 -8.08454,-16.959141 -6.13435,2.520141 -12.22725,5.075193 -18.28428,7.658738 m 21.8501,0.239974 c -1.19988,-2.513918 -2.40488,-5.026433 -3.61474,-7.537535 -5.45054,2.240469 -10.86844,4.508482 -16.25759,6.799535 m 12.33589,-6.475006 c -6.71417,2.780884 -13.37956,5.60218 -20.00355,8.455418 m 5.22362,-1.424866 c -2.09601,0.894819 -4.18772,1.793033 -6.27538,2.694375 -21.33032,9.189731 -42.27864,18.699376 -63.05589,28.36997 m 73.14903,-32.387689 c -3.37392,1.430271 -6.73645,2.869706 -10.08856,4.317204 -14.05547,6.056609 -27.94537,12.252172 -41.73006,18.541186 m 34.13573,-15.100677 c -13.55115,5.910939 -26.95746,11.944435 -40.27371,18.059191 M 567.455,71.414256 c -10.01024,4.371971 -19.94169,8.810224 -29.81644,13.298103 m 19.59924,-7.3737 c -15.52737,6.889358 -30.88337,13.926195 -46.1519,21.047284 -10e-5,-0.0022 0.70264,16.025187 0.70254,16.022947 m 0.87651,-18.197631 c -1.9e-4,8.6e-5 -0.35812,0.16672 -0.3583,0.166806 m 1.08448,0.822714 c -0.004,0.0019 -1.69243,0.788488 -1.69657,0.790417 -1.3e-4,-0.0029 0.84103,19.229244 0.8409,19.226364 m 0.27212,-20.309867 c -7.4e-4,3.43e-4 -0.71392,0.332461 -0.71466,0.332804 -4e-4,-0.0093 1.44469,33.189763 1.44429,33.180483 11.28017,4.18412 22.50656,8.41567 33.64949,12.71984 m -35.32215,-28.47471 c -1.1e-4,-0.002 0.69794,15.953 0.69784,15.95059 17.67814,6.55284 35.2254,13.22036 52.52747,20.09941 m -13.02727,-5.4797 c 6.64819,2.58659 13.26492,5.20045 19.84385,7.84699 m -14.54026,-5.47963 c 3.37527,1.32489 6.74192,2.65722 10.09913,3.9977 m -5.39559,-1.55982 c 5.16536,2.04368 10.30944,4.10566 15.42921,6.18851 8.03258,3.27252 16.00065,6.59042 23.88508,9.96399 3.57375,-8.58209 7.19933,-17.15333 10.88525,-25.71084 m -48.34658,8.62447 c 4.53399,1.79806 9.0515,3.61046 13.55048,5.43895 8.57906,3.49155 17.0857,7.03497 25.49668,10.6428 1.91851,-4.59483 3.85215,-9.18644 5.80223,-13.77439 m -41.52536,0.52971 c 3.42676,1.36777 6.84367,2.74402 10.24984,4.1295 8.35495,3.40329 16.64023,6.85569 24.83429,10.36877 3.83709,-9.20147 7.73433,-18.39024 11.70222,-27.56272 -5.91943,-2.37828 -11.87854,-4.72102 -17.86996,-7.03252 m 13.95351,4.36339 c -0.002,-8.8e-4 -1.79934,-0.7141 -1.80156,-0.71498 m 0.25261,1.27066 c -10.41553,-4.13 -20.94603,-8.15491 -31.55191,-12.09788 -10.5318,-3.91299 -21.13804,-7.741 -31.79532,-11.50531 -0.0133,0.006 3.63504,-1.60824 3.62177,-1.60235 m 48.0644,20.84878 c -4.71741,-1.82326 -9.45512,-3.62703 -14.20953,-5.41341 m 2.40101,-0.2426 c -2.69367,-1.01619 -5.39282,-2.02666 -8.09682,-3.03181 -10.38933,-3.85968 -20.85046,-7.63674 -31.36094,-11.3516 -0.0155,0.007 3.94411,-1.74382 3.92864,-1.73696 m 20.404,11.06404 c -7.93015,-2.91003 -15.89918,-5.77486 -23.89719,-8.60348 5.07413,-2.2482 10.15969,-4.48179 15.25969,-6.69847 m -13.61649,6.6743 c -0.009,-0.003 -3.05451,-1.07992 -3.06321,-1.08301 10.59224,-4.6966 21.23429,-9.33057 31.95333,-13.88081 7.21165,-3.062608 14.45934,-6.08915 21.75269,-9.068245 m -8.83881,3.866756 c 7.8818,-3.27547 15.81275,-6.500433 23.80517,-9.66031 -0.90933,-1.951335 -1.82211,-3.901839 -2.73821,-5.851509 m 2.26326,3.123733 c -3.697,-7.91409 -7.45009,-15.814457 -11.25119,-23.700854 -8.5632,3.512555 -17.0451,7.093405 -25.46084,10.725134 -4.85982,2.092681 -9.69974,4.201958 -14.52227,6.325955 M 445.3614,104.95449 c 9.76321,-0.4568 1.68049,-0.0787 11.4437,-0.53547 m -10.32307,0.17019 c 17.33768,-0.81149 34.68495,-1.62843 52.0441,-2.35925 0,2e-5 -0.46244,-11.003335 -0.46244,-11.003316 m -45.86213,13.509466 c 10.91926,-0.51038 21.84211,-1.01894 32.76916,-1.5028 m -10.72125,-0.82512 c 8.068,-0.3673 16.13869,-0.72521 24.21227,-1.06452 0.002,0.0444 -1.33216,-31.644111 -1.33029,-31.599679 -6.59025,0.277249 -13.17067,0.566548 -19.74138,0.862977 m 2.25651,0.535676 c -7.30576,0.326528 -36.16329,1.682218 -43.46906,2.008746 m 35.77617,-0.870836 c -10.80151,0.493925 -31.83544,1.492911 -42.63695,1.986836 m 3.35975,-1.504342 c 0.39499,-0.01836 -9.27129,0.428216 -8.87629,0.409857 -0.001,-0.02207 1.44614,31.619645 1.44513,31.597575 0.10366,-0.005 5.20914,-0.23889 5.31279,-0.24362 m -0.2042,-30.76454 c 0.20369,-0.0094 -6.92249,0.318369 -6.71879,0.308951 -9.8e-4,-0.02146 1.44069,31.616219 1.43972,31.594769 0.1859,-0.008 6.89529,-0.31723 7.08119,-0.32573 m -6.69291,-6.800598 c 0,-4e-6 0.3181,6.962618 0.3181,6.962618 0.24448,-0.0112 7.70616,-0.35518 7.95064,-0.36637 m -8.35402,-1.37166 c 0,0 0.0827,1.80758 0.0827,1.80758 3.0696,-0.14043 22.32683,-1.04088 25.39644,-1.18132 m 20.54416,-1.203 c 8.98418,-0.41193 17.97134,-0.81355 26.9618,-1.19215 0.002,0.0378 -1.33217,-31.639357 -1.33058,-31.601546 -10.17056,0.427545 -20.31809,0.883734 -30.44304,1.350483 m 30.68664,-0.72718 c -20.40193,0.858688 -40.71263,1.833171 -60.93582,2.777436 m 28.41997,-1.684025 c -4.1856,0.193669 -19.90118,0.931629 -24.08678,1.125298 m 22.17602,-1.068122 c -22.28414,1.034703 -17.10212,0.801742 -39.38626,1.836445 -1.4e-4,-0.0031 0.53538,11.761564 0.53524,11.758433 m 32.28599,-14.126315 c -95.89965,4.469127 62.94442,-2.937182 -32.95522,1.531945 -1e-4,-0.0021 0.45257,9.905323 0.45248,9.903238 M 448.9164,72.551881 c 11.72288,-0.549159 -36.94844,1.722573 -25.22557,1.173414 -0.001,-0.0234 1.44333,31.619995 1.44226,31.596595 6.6714,-0.30451 28.44286,-1.3283 35.11426,-1.63281 m -34.01902,1.55845 c 13.52181,-0.61825 30.67232,-1.43431 44.19413,-2.05256 m -9.57078,1.2155 c 12.84618,-0.5986 25.69748,-1.18633 38.55486,-1.72596 0.003,0.069 -1.20208,-28.704378 -1.19919,-28.635343 m -20.193,84.780593 c -0.21015,0.01 8.44865,-0.38035 8.2385,-0.37079 m -8.41912,0.49633 c 7.79028,-0.35489 15.56278,-0.70005 23.3177,-1.02705 0.007,0.17784 -1.4534,-34.65264 -1.44594,-34.47479 -7.23278,0.30417 -14.47002,0.62366 -21.7119,0.95178 m 9.43891,34.49345 c 4.35631,-0.19375 8.70702,-0.38336 13.05218,-0.56734 0.003,0.066 -1.45708,-34.542 -1.4543,-34.47599 -0.0565,0.002 -5.57864,0.23801 -5.63515,0.24039 m 7.67428,28.58029 c 0,0 -0.40982,-9.7569 -0.40982,-9.7569 m 0.84061,6.75643 c 0.001,0.0346 -1.11214,-26.54197 -1.1107,-26.50738 -17.97917,0.75429 -35.98538,1.60458 -54.02121,2.44789 m 55.01929,23.80495 c 0.007,0.15617 -0.85568,-20.45303 -0.84915,-20.29687 m 0.21924,1.51522 c 3.1e-4,0.008 -0.35042,-8.37985 -0.3501,-8.37232 -10.5658,0.44215 -21.14036,0.91746 -31.72418,1.40505 m 9.07703,1.51937 c -16.95737,0.77063 -35.92067,1.68342 -52.87805,2.45405 -0.001,-0.0286 1.56923,34.49986 1.56793,34.4713 0.058,-0.003 4.17146,-0.18972 4.22949,-0.19234 m -4.98992,-19.88834 c -3.8e-4,-0.008 0.87723,19.28496 0.87684,19.27656 18.6697,-0.84824 35.2157,-1.64809 53.8854,-2.49633 m 11.79856,0.1906 c -0.15774,0.007 8.99135,-0.38633 8.83362,-0.37944 -10e-6,-8e-5 -1.43579,-34.1165 -1.43579,-34.11659 m -1.69603,33.35019 c -0.0262,0.001 3.81643,-0.16203 3.79027,-0.16091 0.0157,0.37447 -1.4585,-34.85081 -1.44283,-34.47634 -0.0214,8.9e-4 -3.5105,0.14826 -3.53186,0.14915 m 4.61922,19.10912 c 0.004,0.0858 -0.78458,-18.76752 -0.78099,-18.68177 -24.53892,1.02893 -49.13037,2.23745 -73.78111,3.36364 m 73.39687,-3.66582 c 0,0 -0.0473,-1.127 -0.0473,-1.127 -8.93557,0.37427 -17.87744,0.77214 -26.82593,1.18099 m 15.15007,0.12688 c -0.22906,0.0101 -9.6177,0.43036 -9.84676,0.44045 m 1.52061,0.34501 c -16.24181,0.73155 -38.96197,1.82062 -55.20378,2.55217 -0.001,-0.0237 1.47431,32.45127 1.47323,32.42759 m 40.34148,-35.16514 c -25.12414,1.16377 -16.34142,0.76449 -41.46556,1.92826 -7.8e-4,-0.017 1.2093,26.53281 1.20852,26.51577 m 24.69571,-28.18027 c 9.53772,-0.44541 -35.81094,1.66128 -26.27322,1.21588 -0.001,-0.0299 1.57115,34.49543 1.56979,34.46556 0.0762,-0.003 4.73457,-0.2163 4.81073,-0.21977 m -2.79221,-33.16409 c 0.0241,-0.001 -2.59964,0.11865 -2.57549,0.11755 -4e-4,-0.009 0.8109,17.75591 0.8105,17.74721 m -1.05404,-3.95994 c -4.1e-4,-0.009 0.89319,19.58425 0.89278,19.57525 0.1,-0.005 5.38575,-0.24536 5.48572,-0.24989 m -0.33745,0.29462 c 18.27801,-0.83737 27.86561,-1.30104 46.14361,-2.13842 m -30.04463,0.96977 c 1.40741,-0.0658 6.09013,-0.28494 7.49755,-0.35072 m -6.93473,1.30994 c 17.84317,-0.83318 35.5931,-1.67079 53.25223,-2.41325 0.001,0.0251 -0.89222,-21.27408 -0.89117,-21.24899 M 645.91022,40.260018 C 621.98143,48.971525 598.82716,58.393162 576.151,68.183886 563.38251,73.685152 550.75083,79.301063 538.21074,84.99752 m 110.06472,-0.559322 c -1.94975,0.731393 -3.89521,1.467714 -5.83656,2.208758 m -8.17032,48.075284 c 27.78415,12.47907 54.52224,25.87525 79.38684,40.63376"
       style="font-style:normal;font-variant:normal;font-weight:800;font-stretch:normal;font-size:57.54236603px;line-height:125%;font-family:'Fira Sans';-inkscape-font-specification:'Fira Sans Ultra-Bold';text-align:start;letter-spacing:-1.70070565px;word-spacing:0px;writing-mode:lr-tb;text-anchor:start;fill:none;fill-opacity:1;fill-rule:evenodd;stroke:#2a144d;stroke-width:2;stroke-linecap:butt;stroke-linejoin:bevel;stroke-miterlimit:4;stroke-dasharray:none;stroke-dashoffset:0;stroke-opacity:1;paint-order:markers fill stroke"
       transform="matrix(0.23003563,0,0,0.23003563,-34.32847,200.11465)"
       inkscape:connector-curvature="0"
       inkscape:path-effect="#path-effect10204;#path-effect10605" />
    <text
       xml:space="preserve"
       style="font-style:normal;font-variant:normal;font-weight:normal;font-stretch:normal;font-size:1.84028506px;line-height:125%;font-family:'Fira Sans';-inkscape-font-specification:'Fira Sans';text-align:start;letter-spacing:0px;word-spacing:-0.23003563px;writing-mode:lr-tb;text-anchor:start;fill:#6c6c6c;fill-opacity:1;fill-rule:evenodd;stroke:none;stroke-width:0.23003563px;stroke-linecap:butt;stroke-linejoin:miter;stroke-opacity:1"
       x="194.04083"
       y="172.33659"
       id="text4786"
       transform="rotate(23.112766)"><tspan
         sodipodi:role="line"
         id="tspan4784"
         x="194.04083"
         y="172.33659"
         style="font-style:normal;font-variant:normal;font-weight:normal;font-stretch:normal;font-size:1.84028506px;font-family:'Fira Sans';-inkscape-font-specification:'Fira Sans';word-spacing:-0.23003563px;fill:#6c6c6c;fill-opacity:1;fill-rule:evenodd;stroke:none;stroke-width:0.23003563px;stroke-opacity:1">(C) DAVID LETTIER</tspan></text>
  </g>
</svg>
