<svg width="1024" height="1024" xmlns="http://www.w3.org/2000/svg">
 <!-- Created with Method Draw - http://github.com/duopixel/Method-Draw/ -->

 <g>
  <title>background</title>
  <rect fill="#ffffff" id="canvas_background" height="1026" width="1026" y="-1" x="-1"/>
  <g display="none" overflow="visible" y="0" x="0" height="100%" width="100%" id="canvasGrid">
   <rect fill="url(#gridpattern)" stroke-width="0" y="0" x="0" height="100%" width="100%"/>
  </g>
 </g>
 <g>
  <title>Layer 1</title>
  <rect id="svg_3" height="100" width="724" y="412" x="298" stroke-width="1.5" stroke="#000" fill="#000000"/>
  <rect id="svg_4" height="300" width="100" y="512" x="380" stroke-width="1.5" stroke="#000" fill="#000000"/>
  <rect id="svg_10" height="300" width="100" y="512" x="680" stroke-width="1.5" stroke="#000" fill="#000000"/>
  <path id="svg_11" d="m504.756897,307.457184c0.918274,-0.18457 7.594727,7.378357 7.724365,8.901184c0.183655,2.223663 4.407776,2.223663 5.515137,2.223663c1.101929,0 9.009949,4.822876 14.34137,10.015167c5.336914,5.194183 20.969177,0.371216 22.071106,0c1.101929,-0.369141 51.493652,-10.199738 65.10022,-3.337799c6.53595,3.295929 19.424133,-8.34729 21.109436,-32.545898c-0.691406,-16.134491 -15.081238,-16.740936 -18.07373,-11.823425c-2.203857,2.179657 -5.974182,1.531464 -5.055908,-2.456543c0.837524,-2.669708 6.438721,-10.896301 16.782959,-7.279602c8.766602,3.065186 13.844055,10.441467 15.723816,21.282715c1.242432,23.363617 -16.139893,40.61203 -16.139893,40.61203c0,0 1.382813,6.119324 3.31134,10.015167c1.928162,3.893585 2.484741,17.244263 2.209045,18.916351c-0.280884,1.667755 8.275208,10.847931 11.030029,11.124786c2.393188,1.113953 9.107117,21.700165 9.382874,26.149628c2.479065,1.252441 -0.275757,7.510284 -3.311462,8.345245c-3.035706,0.834961 -3.861877,-5.007538 -3.861877,-7.789307c0,-2.781769 -3.035706,-15.855499 -11.58667,-17.248566c-8.550537,-1.388672 -15.999512,-6.119415 -15.999512,-6.119415c0,0 -0.550964,2.781799 -1.652893,3.895782c0,0 2.754822,4.728516 2.754822,11.682861c-0.275269,3.060791 -4.688599,12.517883 -7.724243,13.352814c0,0 -4.96405,7.789246 -7.173462,7.789246c-2.203857,0 -6.065857,2.781769 -12.131836,-0.555939c0,0 1.101929,-6.954315 6.616943,-5.007477c0,0 12.969177,-10.012939 6.622375,-14.46463c0,0 -3.862366,-5.563477 -6.071411,-7.789276c-2.209351,-2.225861 -4.413208,-5.842529 -4.964111,-10.012939c0,0 -18.484375,-1.114075 -23.172913,-2.228027c-4.688721,-1.111816 -13.239441,1.669922 -13.239441,3.337585c0,1.669983 1.37738,17.525421 3.862122,20.586212c0,0 0.826477,3.895752 0,5.007599c-0.831848,1.111816 3.035706,10.294067 -4.418457,9.45697c-7.032898,1.252441 -10.479126,-4.310974 -2.203857,-6.119324c0.410583,-5.980957 -10.484497,-31.295715 -17.652466,-27.817383c-9.382629,1.390869 -6.211853,-6.815918 -15.448792,6.119385c-9.658081,11.405975 -26.208832,19.472168 -27.035278,24.479736c0,0 -4.964081,-1.111816 -6.071411,2.781738c0,0 -12.964142,1.66983 -12.137665,-0.555908c0.826447,-2.22583 1.517853,-6.815918 6.622589,-5.007568c0,0 11.586487,-4.590118 22.62207,-28.373291c0,0 -1.382782,-6.119385 0.551025,-11.126953c1.928345,-5.007568 -1.10199,-25.591675 -14.897766,-24.479858c0,0 -5.153168,1.854492 -8.27533,-6.677582c0,0 -1.285767,-1.667664 0,-3.337341c1.285583,-1.667908 4.413147,-4.265076 4.964111,-6.119598c0.550964,-1.854492 1.841949,-4.636261 8.826263,-7.231079c3.311218,-3.478394 -0.36731,-10.386566 0.556366,-10.571136z" stroke-opacity="null" stroke-width="1.5" stroke="#000" fill="#191919"/>
  <rect id="svg_20" height="539.997837" width="317.498728" y="-144.247278" x="-566.74556" stroke-opacity="null" stroke-width="1.5" stroke="#000" fill="#000000"/>
  <path id="svg_29" d="m30.000883,936.999268" opacity="0.5" fill-opacity="null" stroke-opacity="null" stroke-width="1.5" stroke="#000" fill="#191919"/>
  <path id="svg_34" d="m96.000763,125.00071" opacity="0.5" fill-opacity="null" stroke-opacity="null" stroke-width="3.5" stroke="#000" fill="none"/>
  <path id="svg_35" d="m136.000687,275.000427" opacity="0.5" fill-opacity="null" stroke-opacity="null" stroke-width="3.5" stroke="#000" fill="none"/>
  <rect id="svg_42" height="390.908692" width="1327.271374" y="665.636158" x="-140.453953" fill-opacity="null" stroke-opacity="null" stroke-width="1.5" stroke="#000" fill="#000000"/>
  <rect id="svg_43" height="1.81818" width="5.45454" y="751.090616" x="-633.180724" fill-opacity="null" stroke-opacity="null" stroke-width="1.5" stroke="#000" fill="#000000"/>
  <ellipse ry="27.272699" rx="30.909059" id="svg_44" cy="665.636158" cx="35" stroke-width="1.5" stroke="#ffffff" fill="#ffffff"/>
  <ellipse ry="27.272699" rx="30.909059" id="svg_45" cy="665.636158" cx="100" stroke-width="1.5" stroke="#ffffff" fill="#ffffff"/>
  <ellipse ry="27.272699" rx="30.909059" id="svg_46" cy="665.636158" cx="165" stroke-width="1.5" stroke="#ffffff" fill="#ffffff"/>
  <ellipse ry="27.272699" rx="30.909059" id="svg_47" cy="665.636158" cx="230" stroke-width="1.5" stroke="#ffffff" fill="#ffffff"/>
  <ellipse ry="27.272699" rx="30.909059" id="svg_48" cy="665.636158" cx="295" stroke-width="1.5" stroke="#ffffff" fill="#ffffff"/>
  <ellipse ry="27.272699" rx="30.909059" id="svg_50" cy="667.454338" cx="580" stroke-width="1.5" stroke="#ffffff" fill="#ffffff"/>
  <ellipse ry="27.272699" rx="30.909059" id="svg_51" cy="667.454338" cx="513.571435" stroke-width="1.5" stroke="#ffffff" fill="#ffffff"/>
  <ellipse ry="27.272699" rx="30.909059" id="svg_52" cy="667.454338" cx="646.428565" stroke-width="1.5" stroke="#ffffff" fill="#ffffff"/>
  <ellipse ry="27.272699" rx="30.909059" id="svg_53" cy="667.454338" cx="812.857175" stroke-width="1.5" stroke="#ffffff" fill="#ffffff"/>
  <ellipse ry="27.272699" rx="30.909059" id="svg_54" cy="667.454338" cx="880.714305" stroke-width="1.5" stroke="#ffffff" fill="#ffffff"/>
  <ellipse ry="27.272699" rx="30.909059" id="svg_55" cy="666.025773" cx="947.14287" stroke-width="1.5" stroke="#ffffff" fill="#ffffff"/>
  <ellipse ry="27.272699" rx="30.909059" id="svg_56" cy="667.454338" cx="1013.571435" stroke-width="1.5" stroke="#ffffff" fill="#ffffff"/>
  <ellipse ry="27.272699" rx="30.909059" id="svg_58" cy="665.636158" cx="360" stroke-width="1.5" stroke="#ffffff" fill="#ffffff"/>
  <rect id="svg_59" height="91.428162" width="35.714126" y="625.570929" x="380.000612" stroke-width="1.5" stroke="#000000" fill="#000000"/>
 </g>
</svg>